<?xml version="1.0" standalone="no"?>
<!DOCTYPE svg PUBLIC "-//W3C//DTD SVG 1.1//EN" "http://www.w3.org/Graphics/SVG/1.1/DTD/svg11.dtd" >
<svg xmlns="http://www.w3.org/2000/svg">
<metadata></metadata>
<defs>
<font id="nanamiuploaded_file" horiz-adv-x="1229" >
<font-face units-per-em="2048" ascent="1638" descent="-410" />
<missing-glyph horiz-adv-x="594" />
<glyph horiz-adv-x="0" />
<glyph horiz-adv-x="682" />
<glyph unicode=" "  horiz-adv-x="594" />
<glyph unicode="&#x09;" horiz-adv-x="594" />
<glyph unicode="&#xa0;" horiz-adv-x="594" />
<glyph unicode="!" horiz-adv-x="463" d="M70 150q0 64 47 111q46 46 111 46q66 0 112 -46q45 -46 45 -111q0 -63 -47 -111q-47 -47 -112 -47q-62 0 -108 47q-48 48 -48 111zM72 397v1049q-2 67 63 67h4h179h4q65 0 63 -67v-1049q2 -67 -63 -67h-4h-179h-4q-65 0 -63 67z" />
<glyph unicode="&#x22;" horiz-adv-x="844" d="M102 959v496q-2 58 54 58h4h152h4q56 0 54 -58v-496q2 -58 -54 -58h-4h-152h-4q-56 0 -54 58zM461 959v496q-2 58 54 58h4h154h4q56 0 54 -58v-496q2 -58 -54 -58h-4h-154h-4q-56 0 -54 58z" />
<glyph unicode="#" horiz-adv-x="1442" d="M98 464v99q-2 67 62 67h4h224l27 176h-191h-4q-65 0 -63 67v102q-2 67 63 67h4h224l49 346q7 60 67 60h2h107q60 0 60 -47q0 -8 -2 -21l-48 -338h140l49 346q7 60 67 60h2h106q61 0 61 -47q0 -9 -2 -21l-46 -338h194h4q65 0 63 -67v-102q2 -67 -63 -67h-4h-229l-24 -176 h193h4q65 0 63 -67v-99q2 -67 -63 -67h-4h-226l-49 -337q-7 -60 -67 -60h-2h-103q-60 0 -60 51q0 8 1 17l43 329h-138l-49 -337q-7 -60 -67 -60h-2h-104q-61 0 -61 48q0 9 1 20l45 329h-192h-4q-64 0 -62 67zM628 630h137l25 176h-137z" />
<glyph unicode="$" horiz-adv-x="1096" d="M94 1074q0 343 324 434v121q-2 67 63 67h4h134h4q65 0 63 -67v-128q115 -43 179 -122q55 -67 55 -109q0 -32 -43 -53l-170 -81q-23 -11 -34 -11q-26 0 -53 36q-26 35 -88 35q-53 0 -85 -45q-25 -34 -25 -73q0 -90 166 -154l26 -10q363 -140 363 -467q0 -192 -123 -325 q-65 -70 -168 -114v-121q2 -67 -63 -67h-4h-134h-4q-65 0 -63 67v111q-127 29 -201 85q-83 65 -111 155q-9 29 -9 51q0 48 58 58l175 29q20 3 28 3q24 0 54 -34q32 -36 113 -36q56 0 90 34q36 36 36 96q0 88 -68 132q-28 18 -118 49q-371 130 -371 454z" />
<glyph unicode="%" horiz-adv-x="1874" d="M104 1137q0 154 110 266q109 111 268 111q152 0 262 -111t110 -266t-110 -265t-265 -110t-265 110q-110 109 -110 265zM344 1137q0 -55 39 -94t96 -39q56 0 96 40q39 39 39 93q0 56 -40 96q-38 39 -96 39q-56 0 -95 -39t-39 -96zM469 74q0 10 7 25l713 1392q13 26 32 26 q9 0 24 -8l85 -42q26 -13 26 -32q0 -10 -7 -24l-718 -1404q-12 -24 -32 -24q-9 0 -23 8l-84 52q-23 14 -23 31zM976 375q0 154 110 265q109 110 268 110q152 0 262 -110t110 -265t-110 -265t-265 -110t-265 110q-110 109 -110 265zM1216 375q0 -55 40 -95t95 -40q56 0 96 39 q39 40 39 96t-39 95q-39 40 -97 40q-54 0 -94 -40t-40 -95z" />
<glyph unicode="&#x26;" horiz-adv-x="1481" d="M61 450q0 240 233 412q-131 123 -131 290q0 152 111 262q115 114 274 114q153 0 261 -109t108 -262q0 -182 -180 -323l115 -109l129 249q21 40 51 40q16 0 38 -11l154 -76q41 -21 41 -50q0 -16 -12 -39l-172 -328l271 -249q27 -24 27 -48q0 -20 -22 -45l-113 -128 q-24 -27 -48 -27q-22 0 -46 22l-212 194q-141 -245 -403 -245q-200 0 -339 138q-135 134 -135 328zM362 456q0 -72 50 -121q49 -50 117 -50q90 0 175 159l-219 205q-123 -80 -123 -193zM464 1147q0 -33 26 -70q12 -18 25 -30q21 -22 23 -21q5 5 15 13q65 57 65 107 q0 32 -23 54q-22 23 -53 23q-32 0 -56 -23q-22 -22 -22 -53z" />
<glyph unicode="'" horiz-adv-x="463" d="M96 959v496q-2 58 54 58h4h152h4q56 0 54 -58v-496q2 -58 -54 -58h-4h-152h-4q-56 0 -54 58z" />
<glyph unicode="(" horiz-adv-x="702" d="M92 354v717q0 262 172 447q58 63 87 63q24 0 49 -27l121 -131q22 -24 22 -46t-22 -46q-55 -60 -79 -128q-23 -59 -24 -199v-582q0 -115 16 -177q21 -80 87 -151q22 -24 22 -45q0 -22 -22 -47l-121 -132q-24 -27 -49 -27q-45 0 -133 117q-126 171 -126 394z" />
<glyph unicode=")" horiz-adv-x="702" d="M143 49q0 21 22 45q55 60 80 128q22 58 23 200v582q0 114 -16 176q-21 79 -87 151q-22 24 -22 46q0 21 23 46l121 131q25 26 49 26q46 0 133 -120q125 -170 125 -389v-717q0 -259 -171 -448q-57 -63 -87 -63q-24 0 -49 27l-121 132q-23 25 -23 47z" />
<glyph unicode="*" horiz-adv-x="903" d="M66 987v152q0 46 35 46q8 0 23 -5l204 -72l-193 96q-28 14 -28 38q0 16 17 32l104 104q17 18 32 18q24 0 39 -29l97 -193l-70 206q-5 13 -5 23q0 35 46 35h152q46 0 46 -35q0 -8 -5 -23l-72 -204l96 193q14 28 38 28q15 0 32 -17l105 -105q17 -18 17 -33q0 -24 -29 -38 l-195 -96l208 71q13 4 22 4q36 0 36 -46v-152q0 -46 -35 -46q-9 0 -23 5l-206 72l193 -96q28 -14 28 -38q0 -16 -17 -32l-102 -102q-17 -18 -32 -18q-24 0 -39 29l-99 193l72 -208q5 -14 5 -23q0 -35 -46 -35h-152q-46 0 -46 35q0 9 5 23l72 206l-96 -193q-14 -29 -38 -29 q-15 0 -32 17l-104 103q-18 17 -18 33q0 23 29 38l193 99l-206 -72q-14 -5 -23 -5q-35 0 -35 46z" />
<glyph unicode="+" d="M92 454v136q-2 67 63 67h4h310v302q-2 67 63 67h4h136h4q65 0 63 -67v-302h308h4q65 0 63 -67v-136q2 -67 -63 -67h-4h-308v-304q2 -67 -63 -67h-4h-136h-4q-65 0 -63 67v304h-310h-4q-65 0 -63 67z" />
<glyph unicode="," horiz-adv-x="461" d="M79 195q0 39 53 50l135 26q13 3 23 3q45 0 50 -57l25 -289q1 -6 1 -13q0 -45 -52 -51l-88 -10q-13 -1 -19 -1q-34 0 -47 46l-76 267q-5 17 -5 29z" />
<glyph unicode="-" horiz-adv-x="879" d="M100 516v136q-2 67 63 67h4h532h4q65 0 63 -67v-136q2 -67 -63 -67h-4h-532h-4q-65 0 -63 67z" />
<glyph unicode="." horiz-adv-x="465" d="M90 124q0 59 43 103q41 40 98 40q64 0 105 -56q29 -40 29 -87q0 -56 -39 -94q-38 -38 -96 -38q-61 0 -102 40q-38 37 -38 92z" />
<glyph unicode="/" horiz-adv-x="735" d="M70 38q0 10 4 24l404 1414q13 45 46 45q10 0 24 -3l52 -12q46 -10 46 -44q0 -9 -5 -26l-401 -1402q-13 -45 -50 -45q-8 0 -17 1l-56 7q-47 6 -47 41z" />
<glyph unicode="0" d="M78 506v500q0 212 155 368q154 154 367 154q212 0 367 -154q155 -156 155 -368v-500q0 -211 -155 -367q-155 -155 -367 -155t-367 155q-155 156 -155 367zM404 510q0 -79 59 -138q58 -58 137 -58q80 0 138 58q58 59 58 138v494q0 78 -58 137q-59 59 -138 59 q-78 0 -137 -59t-59 -137v-494z" />
<glyph unicode="1" d="M289 1272v177q-2 67 63 67h4h425h4q65 0 63 -67v-1382q2 -67 -63 -67h-4h-192h-4q-65 0 -63 67v1138h-166h-4q-65 0 -63 67z" />
<glyph unicode="2" d="M147 61v6v130q0 48 9 70q8 19 42 56l425 455q95 102 123 143q45 67 45 133q0 148 -153 148q-110 0 -203 -91q-18 -18 -39 -18t-44 24l-124 130q-23 24 -23 47q0 32 72 92q168 142 376 142q201 0 335 -135q134 -134 134 -327q0 -225 -237 -464l-281 -283h453h4 q65 0 63 -67v-185q2 -67 -63 -67h-4h-844h-2q-64 0 -64 61z" />
<glyph unicode="3" d="M158 214q0 15 16 41l98 164q18 31 44 31q17 0 58 -37q107 -95 205 -95q90 0 145 54q49 49 49 117q0 78 -81 140q-70 53 -157 57l-59 3q-65 2 -64 68v125q-2 61 51 68h4q82 8 141 47q65 43 65 112q0 48 -32 79q-34 34 -91 34q-71 0 -157 -66q-16 -13 -32 -13q-27 0 -45 32 l-84 152q-14 25 -14 39q0 26 22 45q151 131 345 131q178 0 293 -115q112 -112 112 -275q0 -156 -123 -278q229 -154 229 -407q0 -202 -134 -336q-144 -145 -366 -145q-234 0 -410 174q-28 28 -28 54z" />
<glyph unicode="4" d="M84 303v150q0 56 8 85q9 30 44 86l525 837q30 50 88 50h2h196h4q65 0 63 -67v-887h68h4q65 0 63 -67v-195q2 -68 -63 -68h-4h-68v-160q2 -67 -63 -67h-4h-194h-4q-65 0 -63 67v169h-535h-4q-65 0 -63 67zM448 543h238v412z" />
<glyph unicode="5" d="M113 280q0 33 41 52l175 80q22 11 34 11q26 0 51 -31q67 -82 170 -82q89 0 149 60q61 61 61 152q0 92 -60 152t-152 60q-99 0 -219 -73q-15 -9 -30 -9q-23 0 -49 25l-109 107q-36 35 -36 63q0 11 5 37l114 571q11 58 69 58h2h609h4q65 0 63 -67v-190q2 -67 -63 -67h-4 h-447l-29 -143q57 13 122 13q222 0 379 -157t157 -379q0 -223 -157 -381t-379 -158q-221 0 -381 160q-90 91 -90 136z" />
<glyph unicode="6" d="M57 528q0 155 74 273l431 689q23 36 53 36q15 0 39 -15l164 -103q35 -22 35 -53q0 -16 -15 -39l-175 -272q230 -38 355 -181q124 -141 124 -335q0 -227 -159 -386q-158 -158 -384 -158q-225 0 -383 158q-159 159 -159 386zM383 529q0 -94 61 -155q62 -62 155 -62t155 62 t62 155q0 92 -62 155q-62 62 -157 62q-91 0 -153 -62q-61 -62 -61 -155z" />
<glyph unicode="7" d="M158 1258v188q-2 67 63 67h4h767h4q65 0 63 -67v-69q0 -57 -12 -105q-8 -30 -48 -123l-469 -1118q-18 -44 -51 -44q-15 0 -36 9l-178 78q-44 19 -44 51q0 13 10 36l433 1030h-439h-4q-65 0 -63 67z" />
<glyph unicode="8" d="M94 482q0 181 174 362q-104 133 -104 248q0 178 129 307q128 127 307 127t307 -127q129 -129 129 -304q0 -116 -106 -251q176 -165 176 -359q0 -206 -148 -354q-149 -149 -358 -149t-357 149q-149 148 -149 351zM418 490q0 -75 54 -129q53 -53 128 -53q74 0 127 53 t53 129q0 73 -52 125q-52 53 -130 53q-74 0 -128 -54q-52 -52 -52 -124zM488 1090q0 -45 34 -79t78 -34q46 0 79 33t33 80t-32 80q-32 32 -80 32q-46 0 -79 -33t-33 -79z" />
<glyph unicode="9" d="M57 979q0 227 158 385q157 158 384 158q228 0 385 -158q158 -157 158 -385q0 -159 -73 -274l-431 -679q-23 -36 -53 -36q-16 0 -39 15l-164 104q-35 23 -35 53q0 16 16 39l173 258q-234 44 -357 186q-122 139 -122 334zM383 979q0 -92 62 -154q63 -63 155 -63t154 63 q62 62 62 154q0 93 -62 155q-61 62 -156 62q-91 0 -153 -62t-62 -155z" />
<glyph unicode=":" horiz-adv-x="469" d="M92 124q0 59 43 103q41 40 98 40q64 0 105 -56q29 -40 29 -87q0 -56 -39 -94q-38 -38 -96 -38q-61 0 -102 40q-38 37 -38 92zM92 812q0 62 40 102q39 39 102 39q55 0 92 -37q41 -41 41 -104q0 -58 -39 -96q-38 -38 -96 -38q-62 0 -102 40q-38 37 -38 94z" />
<glyph unicode=";" horiz-adv-x="463" d="M79 195q0 39 53 50l135 26q13 3 23 3q45 0 50 -57l25 -289q1 -6 1 -13q0 -45 -52 -51l-88 -10q-13 -1 -19 -1q-34 0 -47 46l-76 267q-5 17 -5 29zM88 815q0 61 42 102q37 38 92 38q58 0 99 -40q40 -41 40 -99q0 -55 -38 -93q-42 -41 -102 -41q-55 0 -93 39q-40 39 -40 94 z" />
<glyph unicode="&#x3c;" horiz-adv-x="1372" d="M106 468v99q-1 50 46 69l976 403q14 6 23 6q34 0 34 -44v-114q1 -50 -46 -69l-728 -310l726 -295q47 -18 46 -68v-112q0 -44 -33 -44q-9 0 -24 6l-974 404q-47 18 -46 69z" />
<glyph unicode="=" horiz-adv-x="1169" d="M104 294v134q-2 67 63 67h4h806h4q65 0 63 -67v-134q2 -67 -63 -67h-4h-806h-4q-65 0 -63 67zM104 622v136q-2 67 63 67h4h806h4q65 0 63 -67v-136q2 -67 -63 -67h-4h-806h-4q-65 0 -63 67z" />
<glyph unicode="&#x3e;" horiz-adv-x="1370" d="M104 887v114q0 44 33 44q10 0 24 -6l978 -404q47 -18 46 -68v-99q1 -51 -46 -69l-976 -404q-14 -6 -24 -6q-33 0 -33 44v112q-1 50 46 68l726 293l-728 312q-47 19 -46 69z" />
<glyph unicode="?" horiz-adv-x="922" d="M50 1267q0 28 74 98q174 163 346 163q183 0 283 -112q88 -96 88 -266q0 -149 -64 -247q-37 -58 -128 -133q-61 -51 -92 -91q-40 -51 -40 -126q0 -67 23 -143q6 -23 8 -28q2 -8 2 -13q0 -32 -39 -32h-210q-63 0 -75 52q-26 117 -26 207q0 114 52 205q41 71 143 168 q112 107 112 173q0 64 -58 64q-66 0 -164 -100q-26 -28 -49 -28q-22 0 -46 25l-115 116q-25 25 -25 48zM243 150q0 63 47 111q47 46 113 46q63 0 109 -46t46 -110q0 -68 -50 -116q-45 -43 -106 -43q-63 0 -111 48t-48 110z" />
<glyph unicode="@" horiz-adv-x="1864" d="M104 713q0 322 231 553q262 262 652 262q304 0 512 -166q217 -172 217 -451q0 -260 -177 -438q-138 -139 -320 -139q-153 0 -195 110q-103 -110 -241 -110q-143 0 -219 85q-71 80 -71 227q0 198 113 339q123 154 314 154q141 0 202 -95l11 23q21 45 70 45h2h69 q49 0 49 -39q0 -8 -3 -20l-116 -463q-5 -18 -6 -22q-4 -15 -4 -23q0 -41 52 -41q105 0 189 118q91 127 91 289q0 237 -204 353q-142 80 -333 80q-305 0 -510 -205q-185 -185 -185 -435q0 -260 213 -413q172 -123 420 -123q274 0 455 112q33 20 47 20q25 0 44 -27l18 -25 q14 -20 14 -34q0 -28 -49 -60q-255 -170 -536 -170q-332 0 -563 185q-253 202 -253 544zM700 646q0 -158 118 -158q68 0 122 55q53 53 73 133l35 139q6 24 6 51q0 60 -37 93q-33 30 -83 30q-92 0 -160 -94q-74 -103 -74 -249z" />
<glyph unicode="A" horiz-adv-x="1536" d="M40 38q0 11 6 27l564 1414q20 53 76 53h2h134h2q55 0 76 -53l565 -1414q6 -16 6 -27q0 -38 -51 -38h-224h-2q-56 0 -78 52l-98 224h-529l-93 -224q-21 -52 -76 -52h-2h-227q-51 0 -51 38zM610 587h285l-139 361z" />
<glyph unicode="B" horiz-adv-x="1169" d="M102 67v1398q-2 67 63 67h4h392q108 0 227 -78q187 -124 187 -352q0 -135 -78 -252q164 -160 164 -364q0 -198 -138 -340q-142 -146 -337 -146h-417h-4q-65 0 -63 67zM434 330h141q61 0 106 44q50 50 50 123q0 71 -49 120q-45 44 -107 44h-141v-331zM434 952h109 q43 0 79 39q34 37 34 89t-35 87q-36 35 -89 35h-98v-250z" />
<glyph unicode="C" horiz-adv-x="1460" d="M96 766q0 326 228 554q229 228 556 228q276 0 461 -149q21 -17 21 -44q0 -17 -19 -42l-121 -157q-24 -31 -51 -31q-16 0 -49 21q-118 72 -243 72q-123 0 -241 -72q-99 -61 -155 -161q-57 -100 -57 -219q0 -184 128 -314q133 -136 324 -136q130 0 245 73q32 20 48 20 q27 0 51 -31l121 -159q19 -25 19 -42q0 -31 -39 -57q-202 -136 -445 -136q-325 0 -554 228q-228 229 -228 554z" />
<glyph unicode="D" horiz-adv-x="1503" d="M106 67v1398q-2 67 63 67h4h443q319 0 545 -226q225 -225 225 -540t-225 -540q-226 -226 -545 -226h-443h-4q-65 0 -63 67zM436 330h180q194 0 318 123q122 122 122 314q0 196 -121 317q-119 118 -306 118h-193v-872z" />
<glyph unicode="E" horiz-adv-x="1079" d="M102 67v1398q-2 67 63 67h4h728h4q65 0 63 -67v-196q2 -67 -63 -67h-4h-465v-268h465h4q65 0 63 -67v-196q2 -67 -63 -67h-4h-465v-274h465h4q65 0 63 -67v-196q2 -67 -63 -67h-4h-728h-4q-65 0 -63 67z" />
<glyph unicode="F" horiz-adv-x="1065" d="M102 67v1398q-2 67 63 67h4h730h4q65 0 63 -67v-196q2 -67 -63 -67h-4h-467v-268h467h4q65 0 63 -67v-196q2 -67 -63 -67h-4h-467v-537q2 -67 -63 -67h-4h-196h-4q-65 0 -63 67z" />
<glyph unicode="G" horiz-adv-x="1638" d="M98 766q0 326 228 554q229 228 556 228q269 0 458 -146q25 -20 25 -47q0 -18 -19 -43l-122 -156q-24 -31 -51 -31q-16 0 -48 20q-116 73 -246 73q-184 0 -316 -132q-133 -133 -133 -319q0 -185 133 -318q134 -133 323 -133q199 0 287 111v100h-271h-4q-65 0 -63 67v177 q-2 67 63 67h4h545h4q64 0 63 -66v-356l1 -7q2 -15 2 -29q0 -62 -38 -116q-68 -98 -179 -168q-176 -112 -412 -112q-333 0 -562 229q-228 228 -228 553z" />
<glyph unicode="H" horiz-adv-x="1343" d="M104 67v1398q-2 67 63 67h4h196h4q65 0 63 -67v-531h460v531q-2 67 63 67h4h196h4q65 0 63 -67v-1398q2 -67 -63 -67h-4h-196h-4q-65 0 -63 67v537h-460v-537q2 -67 -63 -67h-4h-196h-4q-65 0 -63 67z" />
<glyph unicode="I" horiz-adv-x="526" d="M98 67v1398q-2 67 63 67h4h196h4q65 0 63 -67v-1398q2 -67 -63 -67h-4h-196h-4q-65 0 -63 67z" />
<glyph unicode="J" horiz-adv-x="965" d="M69 201q0 31 37 53l183 107q19 12 31 12q22 0 46 -28q26 -31 67 -31q40 0 69 29q31 31 31 75v1047q-2 67 63 67h4h196h4q65 0 63 -67v-1047q0 -181 -127 -309q-125 -125 -303 -125q-199 0 -332 156q-32 38 -32 61z" />
<glyph unicode="K" horiz-adv-x="1194" d="M104 67v1398q-2 67 63 67h4h196h4q65 0 63 -67v-526l339 543q30 50 89 50h2h246q44 0 44 -35q0 -10 -10 -26l-431 -707l439 -704q10 -16 10 -25q0 -35 -44 -35h-257h-2q-57 0 -85 51l-340 606v-590q2 -67 -63 -67h-4h-196h-4q-65 0 -63 67z" />
<glyph unicode="L" horiz-adv-x="1024" d="M102 67v1400q-2 67 63 67h4h196h4q65 0 63 -67v-1137h430h4q65 0 63 -67v-196q2 -67 -63 -67h-4h-693h-4q-65 0 -63 67z" />
<glyph unicode="M" horiz-adv-x="1790" d="M108 67v1398q-2 67 63 67h4h288h2q55 0 74 -53l343 -938l342 938q19 53 75 53h2h294h4q65 0 63 -67v-1398q2 -67 -63 -67h-4h-194h-4q-65 0 -63 67v916l-311 -929q-18 -54 -74 -54h-2h-133h-2q-56 0 -74 54l-292 820v-807q2 -67 -63 -67h-4h-204h-4q-65 0 -63 67z" />
<glyph unicode="N" horiz-adv-x="1456" d="M104 67v1398q-2 67 63 67h4h175h2q59 0 93 -50l581 -835v816q-2 67 63 67h4h179h4q65 0 63 -67v-1396q2 -67 -63 -67h-4h-173h-2q-59 0 -93 50l-583 837v-820q2 -67 -63 -67h-4h-179h-4q-65 0 -63 67z" />
<glyph unicode="O" horiz-adv-x="1794" d="M100 766q0 324 228 554q227 228 561 228q318 0 547 -228q229 -229 229 -554t-229 -554q-229 -228 -554 -228t-554 228q-228 229 -228 554zM430 767q0 -185 133 -318q134 -133 320 -133t318 132t132 318q0 188 -133 321q-129 131 -321 131q-183 0 -316 -132 q-133 -133 -133 -319z" />
<glyph unicode="P" horiz-adv-x="1139" d="M104 67v1398q-2 67 63 67h4h413q194 0 322 -129q132 -133 132 -340q0 -215 -141 -354q-127 -126 -313 -126h-150v-516q2 -67 -63 -67h-4h-196h-4q-65 0 -63 67zM434 915h150q68 0 101 59q23 40 23 88q0 69 -44 110q-32 30 -80 30h-150v-287z" />
<glyph unicode="Q" horiz-adv-x="1794" d="M100 766q0 326 228 554q229 228 554 228t554 -228q229 -229 229 -553q0 -246 -154 -464l69 -64q25 -23 25 -46t-25 -46l-126 -113q-36 -33 -67 -33q-34 0 -72 37l-50 48q-190 -102 -384 -102q-324 0 -553 228q-228 229 -228 554zM430 767q0 -185 133 -318 q134 -133 319 -133q71 0 142 22l-36 36q-32 31 -40 40l-11 11q-19 19 -19 33q0 13 14 27l156 151q25 23 47 23q24 0 48 -25l88 -91q62 101 62 220q0 192 -133 324q-131 131 -317 131q-187 0 -320 -132q-133 -133 -133 -319z" />
<glyph unicode="R" horiz-adv-x="1208" d="M102 67v1398q-2 67 63 67h4h435q200 0 335 -136q138 -138 138 -349q0 -274 -246 -412l330 -573q9 -17 9 -28q0 -34 -45 -34h-248h-2q-56 0 -85 50l-315 548h-41v-531q2 -67 -63 -67h-4h-198h-4q-65 0 -63 67zM434 901h170q72 0 111 53q30 41 30 98q0 69 -43 112 q-38 38 -98 38h-170v-301z" />
<glyph unicode="S" horiz-adv-x="1104" d="M96 1088q0 204 126 331q124 125 321 125q193 0 324 -140q67 -72 67 -118q0 -32 -42 -52l-182 -87q-22 -11 -35 -11q-26 0 -45 25q-41 51 -94 51q-51 0 -86 -47q-24 -33 -24 -73q0 -91 170 -156l26 -10q369 -142 369 -475q0 -206 -134 -340q-127 -127 -308 -127h-17 q-236 0 -371 197q-58 86 -58 124q0 35 44 54l151 65q23 10 36 10q25 0 50 -34q63 -87 152 -87q52 0 87 35q38 37 38 98q0 88 -70 132q-28 18 -120 50q-375 133 -375 460z" />
<glyph unicode="T" horiz-adv-x="1194" d="M94 1269v196q-2 67 63 67h4h859h4q65 0 63 -67v-194q2 -67 -63 -67h-4h-266v-1137q2 -67 -63 -67h-4h-196h-4q-65 0 -63 67v1135h-263h-4q-65 0 -63 67z" />
<glyph unicode="U" horiz-adv-x="1243" d="M102 446v1017q-2 67 63 67h4h196h4q65 0 63 -67v-978q0 -75 68 -124q56 -39 121 -39q69 0 120 42q57 45 57 113v986q-2 67 63 67h4h196h4q65 0 63 -67v-1017q0 -217 -188 -353q-143 -103 -320 -103q-234 0 -392 159q-126 127 -126 297z" />
<glyph unicode="V" horiz-adv-x="1413" d="M48 1492q0 40 52 40h227h2q56 0 73 -54l290 -890l297 890q17 54 73 54h2h229q53 0 53 -39q0 -10 -6 -27l-504 -1412q-19 -54 -74 -54h-2h-134h-2q-56 0 -74 54l-497 1412q-5 15 -5 26z" />
<glyph unicode="W" horiz-adv-x="1913" d="M82 1489q0 43 55 43h219h2q57 0 70 -56l183 -724l188 724q14 56 70 56h2h146h2q57 0 71 -56l182 -722l183 722q13 56 70 56h2h220q56 0 56 -42q0 -9 -4 -25l-381 -1409q-14 -56 -71 -56h-2h-149h-2q-58 0 -69 58l-164 800l-205 -802q-14 -56 -70 -56h-2h-147h-2 q-57 0 -70 56l-379 1409q-4 15 -4 24z" />
<glyph unicode="X" horiz-adv-x="1348" d="M22 35q0 10 10 26l436 705l-435 707q-9 15 -9 26q0 35 43 35h255h2q58 0 88 -50l252 -407l249 405q30 50 88 50h2h259q43 0 43 -35q0 -11 -9 -26l-440 -707l440 -704q9 -15 9 -25q0 -35 -43 -35h-259h-2q-57 0 -88 50l-249 405l-255 -405q-30 -50 -89 -50h-2h-253 q-43 0 -43 35z" />
<glyph unicode="Y" horiz-adv-x="1217" d="M27 1495q0 37 50 37h237h2q55 0 76 -53l206 -516l208 514q21 53 76 53h2h233q50 0 50 -37q0 -11 -7 -28l-396 -912v-486q2 -67 -63 -67h-4h-196h-4q-65 0 -63 67v486l-400 914q-7 17 -7 28z" />
<glyph unicode="Z" horiz-adv-x="1200" d="M100 67v102q0 51 8 77q7 26 45 87l537 869h-523h-4q-65 0 -63 67v196q-2 67 63 67h4h849h4q65 0 63 -67v-99q0 -51 -7 -76q-8 -25 -46 -88l-533 -872h519h4q65 0 63 -67v-196q2 -67 -63 -67h-4h-849h-4q-65 0 -63 67z" />
<glyph unicode="[" horiz-adv-x="727" d="M100 -220v1795q-2 67 63 67h4h391h4q64 0 62 -67v-149q2 -67 -62 -67h-4h-132v-1365h132h4q64 0 62 -67v-147q2 -67 -62 -67h-4h-391h-4q-65 0 -63 67z" />
<glyph unicode="\" horiz-adv-x="737" d="M68 1471q0 23 31 32l83 25q9 3 18 3q24 0 33 -31l415 -1437q4 -13 4 -20q0 -23 -32 -32l-82 -22q-9 -3 -17 -3q-25 0 -34 31l-416 1434q-3 12 -3 20z" />
<glyph unicode="]" horiz-adv-x="727" d="M100 -73q-2 67 63 67h4h130v1365h-130h-4q-65 0 -63 67v149q-2 67 63 67h4h387h4q65 0 63 -67v-1795q2 -67 -63 -67h-4h-387h-4q-65 0 -63 67v147z" />
<glyph unicode="^" horiz-adv-x="1147" d="M40 725q0 11 9 27l390 710q27 51 84 51h2h71h2q56 0 83 -51l391 -710q9 -16 9 -27q0 -35 -46 -35h-160h-2q-56 0 -83 51l-229 414l-226 -414q-26 -51 -83 -51h-2h-164q-46 0 -46 35z" />
<glyph unicode="_" horiz-adv-x="1372" d="M-4 -145q-2 67 63 67h4h1222h4q65 0 63 -67v-52q2 -67 -63 -67h-4h-1222h-4q-65 0 -63 67v52z" />
<glyph unicode="`" horiz-adv-x="694" d="M96 1322q0 13 9 32l66 146q17 38 45 38q13 0 32 -8l299 -128q35 -15 35 -43q0 -13 -11 -31l-86 -137q-20 -32 -44 -32q-13 0 -32 8l-274 111q-39 16 -39 44z" />
<glyph unicode="a" horiz-adv-x="1202" d="M42 512q0 217 154 372q154 156 373 156q126 0 241 -59q3 43 50 43h2h169h4q65 0 63 -67v-900q1 -67 -63 -67h-4h-132h-6q-60 0 -61 58v7q-126 -71 -264 -71q-218 0 -372 156q-154 155 -154 372zM353 512q0 -93 63 -156q62 -63 152 -63q92 0 154 62q63 63 63 157 q0 93 -63 157q-62 62 -155 62q-89 0 -151 -63q-63 -63 -63 -156z" />
<glyph unicode="b" horiz-adv-x="1233" d="M82 61v1289q-2 67 63 67h4h179h4q65 0 63 -67v-359q110 49 220 49q216 0 372 -156t156 -372t-156 -372t-371 -156q-133 0 -268 69v-3q-2 -56 -61 -56h-6h-132h-4q-65 0 -63 67zM397 512q0 -93 63 -156t154 -63q90 0 154 63t64 156q0 92 -64 156q-63 63 -156 63 q-89 0 -152 -63t-63 -156z" />
<glyph unicode="c" horiz-adv-x="1126" d="M57 514q0 217 153 371q155 155 373 155q219 0 388 -174q41 -41 41 -67q0 -27 -32 -51l-128 -95q-26 -19 -45 -19q-20 0 -40 17l-5 4q-85 72 -170 72q-91 0 -154 -63q-62 -62 -62 -151t62 -152q63 -62 152 -62q88 0 160 78q37 40 61 40q14 0 37 -12l159 -79q40 -20 40 -52 q0 -30 -61 -99q-166 -191 -401 -191q-219 0 -373 155q-155 154 -155 375z" />
<glyph unicode="d" horiz-adv-x="1241" d="M78 512q0 216 156 372t372 156q110 0 220 -49v357q-2 67 63 67h4h179h4q65 0 63 -67v-1287q2 -67 -63 -67h-4h-134h-6q-59 0 -61 56v3q-131 -69 -265 -69q-216 0 -372 156t-156 372zM389 512q0 -93 64 -156q63 -63 154 -63t154 63t63 156t-63 156t-156 63q-89 0 -152 -63 q-64 -63 -64 -156z" />
<glyph unicode="e" horiz-adv-x="1092" d="M43 514q0 218 154 371t371 153q229 0 356 -174q102 -141 102 -338q0 -45 -4 -71q-7 -49 -68 -49h-565q44 -128 210 -128q100 0 209 43q20 8 31 8q35 0 53 -44l53 -129q10 -23 10 -37q0 -29 -38 -51q-147 -85 -330 -85q-234 0 -389 155t-155 376zM391 642h320 q-20 98 -155 98q-117 0 -165 -98z" />
<glyph unicode="f" horiz-adv-x="834" d="M49 806v151q-2 67 63 67h4h66v90q2 159 88 238q72 66 200 67h151h4q65 0 63 -67v-145q2 -66 -63 -66h-4h-42q-83 0 -84 -68v-49h196h4q65 0 63 -67v-151q2 -67 -63 -67h-4h-196v-672q2 -67 -63 -67h-4h-179h-4q-65 0 -63 67v672h-66h-4q-65 0 -63 67z" />
<glyph unicode="g" horiz-adv-x="1245" d="M79 512q0 216 156 372q155 156 372 156q133 0 264 -69v3q2 56 61 56h6h134h4q65 0 63 -67v-836q0 -234 -165 -401q-166 -166 -396 -166q-158 0 -302 93q-60 39 -60 72q0 21 22 46l106 114q25 27 49 27q16 0 50 -21q70 -44 142 -44q102 0 174 76q38 40 61 106 q-114 -45 -214 -45q-215 0 -371 156t-156 372zM390 512q0 -93 64 -156q63 -63 153 -63q91 0 154 63t63 156t-63 156q-62 63 -156 63q-88 0 -151 -63q-64 -63 -64 -156z" />
<glyph unicode="h" horiz-adv-x="1096" d="M82 67v1283q-2 67 63 67h4h177h4q65 0 63 -67v-334q73 24 149 24q228 0 349 -135q106 -118 106 -321v-517q2 -67 -63 -67h-4h-179h-4q-65 0 -63 67v513q0 61 -43 104t-103 43t-103 -43q-44 -43 -44 -104v-513q2 -67 -63 -67h-4h-175h-4q-65 0 -63 67z" />
<glyph unicode="i" horiz-adv-x="463" d="M74 67v890q-2 67 63 67h4h179h4q65 0 63 -67v-890q2 -67 -63 -67h-4h-179h-4q-65 0 -63 67zM74 1216q0 62 46 109t112 47q61 0 110 -49q47 -47 47 -108q0 -64 -47 -111t-111 -47q-65 0 -110 46q-47 47 -47 113z" />
<glyph unicode="j" horiz-adv-x="463" d="M-27 -136q-2 66 62 66h4h34v1027q-2 67 63 67h4h179h4q65 0 63 -67v-1088q0 -116 -67 -184q-65 -66 -168 -66h-112h-4q-64 0 -62 67v178zM73 1215q0 63 46 109q47 47 112 47q60 0 108 -48q48 -47 48 -108q0 -64 -47 -112q-47 -46 -110 -46q-64 0 -110 46q-47 47 -47 112z " />
<glyph unicode="k" horiz-adv-x="958" d="M80 67v1382q-2 67 63 67h4h179h4q65 0 63 -67v-777l190 302q30 50 88 50h2h214q43 0 43 -35q0 -10 -10 -25l-281 -450l287 -454q10 -16 10 -25q0 -35 -43 -35h-222h-3q-54 0 -78 36l-197 314v-283q2 -67 -63 -67h-4h-179h-4q-65 0 -63 67z" />
<glyph unicode="l" horiz-adv-x="463" d="M74 67v1281q-2 67 63 67h4h179h4q65 0 63 -67v-1281q2 -67 -63 -67h-4h-179h-4q-65 0 -63 67z" />
<glyph unicode="m" horiz-adv-x="1729" d="M86 67v894q-2 67 63 67h4h139h2q42 0 46 -39q85 51 207 51q170 0 300 -90q136 90 307 90q229 0 350 -135q106 -117 106 -321v-517q2 -67 -63 -67h-4h-177h-4q-65 0 -63 67v513q0 61 -44 104t-104 43q-57 0 -99 -38q-47 -43 -47 -99v-523q2 -67 -63 -67h-4h-179h-4 q-65 0 -63 67v513q0 61 -43 104t-104 43q-57 0 -99 -38q-47 -44 -47 -99v-523q2 -67 -63 -67h-4h-179h-4q-65 0 -63 67z" />
<glyph unicode="n" horiz-adv-x="1092" d="M80 67v894q-2 67 63 67h4h139h2q42 0 46 -39q82 51 209 51q228 0 349 -135q106 -118 106 -321v-517q2 -67 -63 -67h-4h-179h-4q-65 0 -63 67v513q0 61 -43 104t-103 43q-58 0 -101 -39q-47 -43 -47 -98v-523q2 -67 -63 -67h-4h-177h-4q-65 0 -63 67z" />
<glyph unicode="o" horiz-adv-x="1192" d="M59 513q0 218 154 373q152 154 378 154q215 0 369 -154t154 -372q0 -222 -155 -377q-154 -153 -372 -153q-219 0 -373 153q-155 155 -155 376zM372 514q0 -90 62 -153q63 -62 153 -62q89 0 151 62q63 63 63 152q0 88 -63 151q-62 63 -153 63q-88 0 -151 -63 q-62 -62 -62 -150z" />
<glyph unicode="p" horiz-adv-x="1231" d="M82 -334v1297q-2 67 63 67h4h132h6q59 0 61 -56v-3q135 69 268 69q215 0 371 -156t156 -372t-156 -372t-372 -156q-110 0 -220 49v-367q2 -67 -63 -67h-4h-179h-4q-65 0 -63 67zM397 512q0 -93 63 -156t154 -63q90 0 154 63t64 156q0 92 -64 156q-63 63 -156 63 q-89 0 -152 -63t-63 -156z" />
<glyph unicode="q" horiz-adv-x="1241" d="M78 512q0 216 156 372t372 156q134 0 265 -69v3q2 56 61 56h6h134h4q65 0 63 -67v-1297q2 -67 -63 -67h-4h-179h-4q-65 0 -63 67v367q-110 -49 -220 -49q-216 0 -372 156t-156 372zM389 512q0 -93 64 -156q63 -63 154 -63t154 63t63 156t-63 156t-156 63q-89 0 -152 -63 q-64 -63 -64 -156z" />
<glyph unicode="r" horiz-adv-x="758" d="M76 67v894q-2 67 63 67h4h139h2q42 0 46 -39q77 50 205 51h95h4q65 0 63 -66v-182q2 -67 -63 -67h-4h-95q-65 0 -108 -43q-38 -37 -38 -90v-525q2 -67 -63 -67h-4h-179h-4q-65 0 -63 67z" />
<glyph unicode="s" horiz-adv-x="735" d="M53 209q0 30 38 53l125 76q15 9 24 9q16 0 31 -17q40 -45 74 -45q32 0 32 35q0 54 -111 107q-93 45 -141 96q-72 76 -72 200q0 147 87 233q85 85 220 85q143 0 238 -131q49 -66 49 -102q0 -30 -41 -52l-109 -58q-20 -11 -33 -11q-25 0 -45 30q-17 25 -43 25 q-30 0 -30 -30q0 -38 92 -85q232 -117 232 -327q0 -136 -91 -227q-89 -89 -216 -89q-155 0 -266 139q-44 55 -44 86z" />
<glyph unicode="t" horiz-adv-x="885" d="M55 806v151q-2 67 63 67h4h164v214q-2 67 63 67h4h177h4q65 0 63 -67v-214h159h4q65 0 63 -67v-151q2 -67 -63 -67h-4h-159v-672q2 -67 -63 -67h-4h-177h-4q-65 0 -63 67v672h-164h-4q-65 0 -63 67z" />
<glyph unicode="u" horiz-adv-x="1096" d="M80 440v517q-2 67 63 67h4h177h4q65 0 63 -67v-513q0 -61 44 -104t104 -43q57 0 99 38q47 43 47 99v523q-2 67 63 67h4h179h4q65 0 63 -67v-896q2 -67 -63 -67h-4h-137h-2q-44 0 -48 41q-84 -51 -209 -51q-228 0 -349 135q-106 118 -106 321z" />
<glyph unicode="v" horiz-adv-x="979" d="M22 984q0 40 53 40h206h2q56 0 72 -55l125 -424l123 424q15 55 72 55h2h208q52 0 52 -40q0 -11 -5 -26l-315 -904q-18 -54 -74 -54h-2h-123h-2q-56 0 -74 54l-314 904q-6 16 -6 26z" />
<glyph unicode="w" horiz-adv-x="1477" d="M22 982q0 42 55 42h202h2q57 0 70 -57l107 -451l124 450q15 56 71 56h2h129h2q56 0 72 -55l129 -439l99 439q12 57 70 57h2h200q55 0 55 -42q0 -10 -4 -25l-241 -901q-14 -56 -71 -56h-2h-145h-2q-56 0 -75 54l-157 442l-151 -442q-18 -54 -74 -54h-2h-147h-2 q-57 0 -71 56l-243 901q-4 15 -4 25z" />
<glyph unicode="x" horiz-adv-x="1055" d="M35 33q0 12 10 27l287 452l-281 452q-10 15 -10 25q0 35 43 35h242h2q56 0 82 -51l105 -201l104 201q26 51 82 51h2h242q43 0 43 -35q0 -11 -9 -26l-280 -451l289 -452q10 -16 10 -26q0 -34 -43 -34h-250h-2q-56 0 -82 51l-106 203l-105 -203q-26 -51 -82 -51h-2h-248 q-43 0 -43 33z" />
<glyph unicode="y" horiz-adv-x="977" d="M22 984q0 40 53 40h208h2q56 0 72 -55l123 -424l123 424q15 55 72 55h2h202q52 0 52 -41q0 -11 -5 -25l-444 -1310q-18 -54 -74 -54h-2h-204q-53 0 -53 40q0 10 6 26l159 454v19l-287 825q-5 16 -5 26z" />
<glyph unicode="z" horiz-adv-x="874" d="M67 67v98q0 54 13 86q8 19 38 61l283 403h-267h-4q-65 0 -63 67v175q-2 67 63 67h4h595h4q65 0 63 -67v-84q0 -51 -13 -84q-7 -17 -38 -62l-289 -416h273h4q65 0 63 -67v-177q2 -67 -63 -67h-4h-595h-4q-65 0 -63 67z" />
<glyph unicode="{" horiz-adv-x="793" d="M98 633v112q-1 54 46 66q85 25 117 82q29 51 30 151v248q0 164 30 231q63 140 305 140q63 0 63 -66v-81v-2q2 -7 2 -14q0 -19 -17 -36q-11 -9 -53 -25q-39 -15 -57 -49q-20 -33 -21 -130v-252q0 -136 -32 -205q-39 -77 -132 -115q82 -36 120 -96q42 -67 44 -225v-250 q1 -93 21 -132q22 -36 90 -60q16 -6 26 -20q11 -16 11 -30q0 -6 -2 -12v-2v-82q0 -66 -63 -66q-195 0 -270 85q-65 74 -65 286v248q0 200 -147 234q-48 11 -46 67z" />
<glyph unicode="|" horiz-adv-x="467" d="M98 67v1379q-2 67 63 67h4h134h4q65 0 63 -67v-1379q2 -67 -63 -67h-4h-134h-4q-65 0 -63 67z" />
<glyph unicode="}" horiz-adv-x="803" d="M95 -140q0 30 10 44q12 16 60 33q39 15 56 47q20 32 21 133v250q0 135 31 203q37 77 131 118q-81 34 -119 93q-41 67 -43 227v252q-1 93 -21 132q-21 34 -89 59q-36 17 -35 64v82q0 66 62 66q195 0 270 -85q65 -74 65 -286v-248q1 -100 30 -151q32 -57 116 -82 q48 -12 46 -66v-112q2 -56 -46 -67q-146 -34 -146 -234v-248q0 -164 -30 -231q-63 -140 -305 -140q-64 0 -64 66v81z" />
<glyph unicode="~" horiz-adv-x="1290" d="M98 388v169q0 55 42 72q139 59 273 59q86 0 291 -51q94 -23 120 -23q101 0 278 67q12 4 20 4q40 0 40 -49v-125q0 -64 -41 -91q-30 -19 -84 -36q-122 -40 -219 -40q-66 0 -180 35q-135 41 -214 41q-107 0 -246 -63q-34 -15 -45 -15q-35 0 -35 46z" />
<glyph unicode="&#xa1;" horiz-adv-x="463" d="M70 1378q0 63 48 111q46 47 109 47q64 0 111 -48q47 -47 47 -110q0 -65 -45 -111q-47 -46 -113 -46q-64 0 -110 46q-47 47 -47 111zM72 81v1050q-2 67 63 67h4h179h4q65 0 63 -67v-1050q2 -67 -63 -67h-4h-179h-4q-65 0 -63 67z" />
<glyph unicode="&#xa2;" horiz-adv-x="1153" d="M57 518q0 218 153 371q83 83 218 127v125q-2 67 63 67h4h134h4q65 0 63 -67v-115q149 -38 256 -139q59 -55 59 -87q0 -28 -33 -52l-121 -85q-24 -17 -42 -17q-24 0 -45 21q-42 43 -74 62v-430q51 26 88 75q23 31 48 31q15 0 37 -11l138 -69q40 -19 40 -52 q0 -48 -109 -149q-99 -91 -242 -128v-95q2 -67 -63 -67h-4h-134h-4q-65 0 -63 67v105q-141 56 -230 155q-141 158 -141 357zM348 515q0 -111 80 -183v364q-80 -74 -80 -181z" />
<glyph unicode="&#xa3;" horiz-adv-x="1327" d="M104 714v147q-2 67 62 67h4h22q-12 66 -12 112q0 209 140 349q139 139 351 139q185 0 322 -104q43 -32 43 -61q0 -23 -26 -46l-146 -131q-24 -22 -45 -22q-15 0 -37 12q-45 24 -106 24q-78 0 -127 -49q-41 -42 -41 -102q0 -49 32 -121h343h4q65 0 63 -67v-147 q2 -67 -63 -67h-4h-226q68 -120 68 -229q0 -55 -15 -88h41q137 0 148 103q5 59 64 59h4h167q65 0 65 -56q0 -92 -59 -195q-64 -110 -174 -173q-119 -68 -266 -68h-445h-4q-65 0 -63 67v194q-2 67 63 67h4h74q69 0 68 82v8q1 37 -54 132q-29 50 -65 97h-107h-4q-65 0 -63 67z " />
<glyph unicode="&#xa4;" horiz-adv-x="1444" d="M112 1145q0 20 21 41l71 71q21 21 41 21q21 0 42 -21l155 -157q155 82 269 82q116 0 255 -80l154 153q22 22 41 22q20 0 41 -21l69 -68q21 -21 21 -41t-21 -41l-151 -150q82 -140 82 -268q0 -122 -78 -260l151 -151q22 -22 22 -41q0 -20 -22 -42l-67 -67q-21 -21 -41 -21 t-41 21l-149 149q-140 -83 -272 -83q-123 0 -269 83l-149 -149q-22 -21 -41 -21q-20 0 -42 21l-67 67q-21 22 -21 42t21 41l149 151q-77 128 -77 259q0 122 82 263l-157 154q-22 21 -22 41zM455 690q0 -102 74 -177q75 -74 178 -74q102 0 175 73q74 74 74 178q0 105 -75 181 q-72 73 -176 73q-100 0 -175 -74q-75 -76 -75 -180z" />
<glyph unicode="&#xa5;" horiz-adv-x="1360" d="M98 612v71q-2 67 63 67h4h251l-60 137h-191h-4q-65 0 -63 67v71q-2 67 63 67h4h101l-153 356q-7 18 -7 28q0 37 50 37h231h2q56 0 77 -53l202 -509l204 507q21 53 76 53h2h229q49 0 49 -38q0 -11 -7 -27l-152 -354h101h4q65 0 63 -67v-71q2 -67 -63 -67h-4h-189l-61 -137 h250h4q65 0 63 -67v-71q2 -67 -63 -67h-4h-336v-478q2 -67 -63 -67h-4h-194h-4q-65 0 -63 67v478h-341h-4q-65 0 -63 67z" />
<glyph unicode="&#xa6;" horiz-adv-x="465" d="M98 46v524q-2 67 63 67h4h134h4q65 0 63 -67v-524q2 -66 -63 -66h-4h-134h-4q-65 0 -63 66zM98 956v530q-2 66 63 66h4h134h4q65 0 63 -66v-530q2 -67 -63 -67h-4h-134h-4q-65 0 -63 67z" />
<glyph unicode="&#xa7;" horiz-adv-x="1317" d="M98 607q0 121 59 212q34 53 107 115q-84 99 -84 202q0 193 150 302q124 90 300 90q201 0 337 -112q38 -31 38 -97v-238q0 -31 -26 -31q-11 0 -28 17q-46 47 -116 94q-92 62 -169 62q-46 0 -81 -28q-41 -32 -41 -79q0 -29 25 -53q40 -40 194 -96q184 -67 283 -139 q143 -103 143 -258q0 -193 -198 -347q75 -113 75 -203q0 -186 -150 -294q-119 -87 -292 -87q-298 0 -451 230q-62 93 -62 133q0 45 55 45h236h3q50 0 76 -36q52 -67 116 -67q50 0 86 29q31 24 31 61q0 33 -28 62q-27 29 -143 73q-200 77 -282 130q-163 106 -163 308z M438 629q0 -73 86 -109l237 -100q76 50 76 113q0 76 -129 129l-203 81q-67 -55 -67 -114z" />
<glyph unicode="&#xa8;" horiz-adv-x="928" d="M96 1358q0 66 45 111q44 45 111 45q65 0 109 -45q45 -45 45 -111q0 -65 -44 -109q-44 -45 -111 -45t-111 45q-44 44 -44 109zM499 1357q0 67 45 112q43 44 110 44q64 0 109 -45t45 -111q0 -64 -44 -108q-44 -45 -112 -45q-66 0 -109 44q-44 44 -44 109z" />
<glyph unicode="&#xa9;" horiz-adv-x="1710" d="M104 727q0 300 216 518q213 215 523 215q297 0 509 -212q214 -215 214 -521t-214 -519q-213 -212 -516 -212q-301 0 -516 215q-216 215 -216 516zM258 727q0 -239 169 -408t408 -169q245 0 419 174q169 169 169 403q0 233 -169 403q-172 174 -424 174q-234 0 -403 -169 t-169 -408zM454 728q0 163 114 277q113 113 278 113q120 0 215 -59q32 -20 32 -47q0 -15 -18 -37l-52 -64q-20 -25 -42 -25q-12 0 -33 10q-43 21 -99 21q-82 0 -139 -57q-55 -56 -55 -130q0 -78 57 -135q56 -56 137 -56q55 0 110 28q10 5 21 5q23 0 44 -25l51 -64 q18 -22 18 -38q0 -27 -33 -48q-90 -57 -212 -57q-167 0 -281 115q-113 113 -113 273z" />
<glyph unicode="&#xaa;" horiz-adv-x="860" d="M53 1102q0 148 106 255q107 107 255 107q77 0 155 -35q3 35 39 35h4h110h4q56 0 54 -58v-600q0 -50 -39 -50q-8 0 -20 3l-127 29q-89 -47 -179 -47q-149 0 -256 106q-106 107 -106 255zM276 1101q0 -59 40 -99t98 -40q60 0 99 40q40 39 40 99t-40 100q-39 40 -100 40 q-57 0 -97 -40t-40 -100z" />
<glyph unicode="&#xab;" horiz-adv-x="1067" d="M88 560q0 19 18 47l214 340q22 34 51 34q17 0 40 -17l119 -84q33 -24 33 -53q0 -15 -17 -39l-155 -229l150 -227q16 -24 16 -40q0 -27 -29 -51l-107 -91q-23 -19 -41 -19q-27 0 -49 33l-224 347q-19 29 -19 49zM475 560q0 19 18 47l214 340q22 34 51 34q17 0 40 -17 l119 -84q33 -24 33 -53q0 -15 -16 -39l-156 -229l150 -227q16 -24 16 -40q0 -27 -29 -51l-107 -91q-23 -19 -41 -19q-27 0 -48 33l-225 347q-19 29 -19 49z" />
<glyph unicode="&#xac;" horiz-adv-x="1290" d="M90 663v136q-2 67 63 67h4h937h4q65 0 63 -67v-580q2 -67 -63 -67h-4h-134h-4q-65 0 -63 67v377h-736h-4q-65 0 -63 67z" />
<glyph unicode="&#xad;" horiz-adv-x="879" d="M100 516v136q-2 67 63 67h4h532h4q65 0 63 -67v-136q2 -67 -63 -67h-4h-532h-4q-65 0 -63 67z" />
<glyph unicode="&#xae;" horiz-adv-x="1792" d="M104 755q0 314 228 545q225 228 551 228q312 0 536 -225q227 -227 227 -547t-227 -547q-225 -225 -543 -225q-316 0 -544 229q-228 228 -228 542zM264 756q0 -252 179 -431t431 -179q257 0 442 184q180 180 180 426t-180 427q-183 185 -447 185q-247 0 -426 -179 q-179 -180 -179 -433zM620 353v803q-2 58 55 58h4h226q125 0 201 -76q80 -79 80 -211q0 -218 -187 -268l189 -311q8 -13 8 -23q0 -30 -38 -30h-114q-39 0 -59 19q-22 28 -168 282v-243q1 -58 -55 -58h-4h-79h-4q-57 0 -55 58zM817 821h82q40 0 64 33q22 31 22 75 q0 103 -86 103h-82v-211z" />
<glyph unicode="&#xaf;" horiz-adv-x="877" d="M100 1263v152q-2 58 54 58h4h545h4q57 0 55 -58v-152q2 -58 -57 -58h-2h-545h-4q-56 0 -54 58z" />
<glyph unicode="&#xb0;" horiz-adv-x="885" d="M94 1124q0 139 98 239q98 99 243 99q138 0 237 -99q98 -99 98 -239q0 -141 -98 -240q-99 -98 -240 -98t-240 98q-98 99 -98 240zM274 1124q0 -67 47 -114q45 -46 111 -46q65 0 111 46q47 47 47 114q0 66 -46 112t-113 46q-65 0 -111 -46t-46 -112z" />
<glyph unicode="&#xb1;" horiz-adv-x="1307" d="M100 79v134q-2 67 63 67h4h949h4q65 0 63 -67v-134q2 -67 -63 -67h-4h-949h-4q-65 0 -63 67zM100 608v136q-2 67 63 67h4h341v173q-2 67 63 67h4h136h4q65 0 63 -67v-173h338h4q65 0 63 -67v-136q2 -67 -63 -67h-4h-338v-173q2 -67 -63 -67h-4h-136h-4q-65 0 -63 67v173 h-341h-4q-65 0 -63 67z" />
<glyph unicode="&#xb2;" horiz-adv-x="735" d="M101 770v8q0 48 42 85l308 282q35 32 35 75q0 38 -28 66q-27 27 -63 27q-44 0 -86 -57q-15 -19 -37 -19q-11 0 -28 6l-93 33q-41 15 -41 47q0 44 78 120q88 85 207 85q127 0 217 -90q91 -90 91 -220q0 -64 -26 -119q-34 -73 -87 -115l-234 -183h290h4q56 0 55 -58v-99 q1 -58 -55 -58h-4h-485h-4q-56 0 -55 58v122q0 1 -1 4z" />
<glyph unicode="&#xb3;" horiz-adv-x="733" d="M60 825q0 44 52 51l91 11q10 1 18 1q28 0 49 -39q31 -58 87 -58q45 0 74 40q22 31 22 69q0 41 -28 74q-28 32 -64 42l-50 13q-50 13 -49 64v62q-1 52 50 64l42 10q27 6 27 45q0 45 -41 45q-39 0 -86 -47l-7 -7q-14 -14 -30 -14q-23 0 -37 29l-35 68q-13 27 -13 42 q0 26 24 54q71 86 185 86q101 0 173 -72q72 -71 72 -174q0 -73 -49 -141q131 -101 131 -256q0 -129 -91 -220q-92 -91 -222 -91q-129 0 -217 89q-78 79 -78 160z" />
<glyph unicode="&#xb4;" horiz-adv-x="694" d="M98 1361q0 26 35 41l302 128q19 8 31 8q28 0 45 -38l65 -146q9 -20 9 -32q0 -28 -39 -44l-274 -111q-19 -8 -32 -8q-24 0 -45 32l-85 137q-12 19 -12 33z" />
<glyph unicode="&#xb5;" horiz-adv-x="1192" d="M106 -359v1390q-2 67 63 67h4h192h4q65 0 63 -67v-554q0 -70 43 -113q45 -44 114 -44q72 0 117 45q43 43 43 112v554q-2 67 63 67h4h192h4q65 0 63 -67v-975q0 -49 -38 -49q-11 0 -27 7l-230 101q-66 -123 -191 -123q-82 0 -157 49v-400q2 -67 -63 -67h-4h-192h-4 q-65 0 -63 67z" />
<glyph unicode="&#xb6;" horiz-adv-x="1339" d="M94 1079q0 205 152 292q118 67 352 67h541h4q65 0 63 -67v-1718q2 -67 -63 -67h-4h-136h-4q-65 0 -63 67v1515h-138v-1515q2 -67 -63 -67h-4h-136h-4q-65 0 -63 67v1056q-434 35 -434 370z" />
<glyph unicode="&#xb7;" horiz-adv-x="465" d="M90 757q0 59 43 103q41 40 98 40q64 0 105 -56q29 -39 29 -87q0 -56 -39 -94q-38 -38 -96 -38q-62 0 -102 40q-38 37 -38 92z" />
<glyph unicode="&#xb8;" horiz-adv-x="631" d="M94 -256q0 33 26 33q6 0 16 -3l15 -5q56 -18 90 -18h19q33 0 33 31q0 30 -43 30h-113q-26 0 -26 21q0 5 7 15l144 199h176l-72 -94q160 -18 160 -170q0 -101 -81 -159q-68 -50 -155 -50q-94 0 -168 31q-28 12 -28 50v89z" />
<glyph unicode="&#xb9;" horiz-adv-x="494" d="M-62 1365v89q-2 59 54 59h4h240h4q56 0 54 -59v-810q1 -58 -54 -58h-4h-99h-4q-55 0 -54 58v662h-83h-4q-56 0 -54 59z" />
<glyph unicode="&#xba;" horiz-adv-x="848" d="M55 1099q0 151 104 256t261 105q150 0 254 -104q104 -105 104 -257q0 -153 -105 -258q-104 -104 -256 -104q-153 0 -258 104q-104 105 -104 258zM280 1099q0 -56 40 -97q41 -40 97 -40t96 40q40 41 40 97t-40 96q-39 40 -97 40q-55 0 -96 -40q-40 -40 -40 -96z" />
<glyph unicode="&#xbb;" horiz-adv-x="1067" d="M92 286q0 16 16 40l154 229l-150 225q-16 25 -16 40q0 26 29 51l108 91q23 19 41 19q27 0 48 -33l225 -345q18 -28 18 -49q0 -19 -18 -47l-214 -341q-22 -35 -51 -35q-16 0 -39 17l-119 86q-32 24 -32 52zM477 286q0 16 17 40l155 229l-150 225q-16 25 -16 40q0 26 29 51 l108 91q23 19 41 19q27 0 48 -33l225 -345q18 -28 18 -49q0 -19 -18 -47l-214 -341q-22 -35 -51 -35q-16 0 -39 17l-120 86q-33 24 -33 52z" />
<glyph unicode="&#xbc;" horiz-adv-x="1683" d="M84 1352v103q-2 58 55 58h4h262h4q56 0 54 -58v-887q2 -58 -54 -58h-4h-113h-4q-55 0 -54 58v726h-91h-2q-58 0 -57 58zM474 29q0 7 3 16l413 1447q9 31 35 31q7 0 15 -2l84 -19q32 -7 32 -32q0 -8 -3 -17l-410 -1433q-9 -33 -33 -33q-6 0 -15 1l-88 11q-33 4 -33 30z M854 212v84q0 70 46 140l327 519q26 44 77 44h2h109h4q56 0 54 -58v-562h32h4q56 0 54 -58v-115q2 -58 -54 -58h-4h-32v-89q1 -59 -54 -59h-4h-111h-4q-55 0 -54 59v95h-333h-4q-56 0 -55 58zM1113 369h133v227z" />
<glyph unicode="&#xbd;" horiz-adv-x="1712" d="M84 1352v103q-2 58 55 58h4h262h4q56 0 54 -58v-887q2 -58 -54 -58h-4h-111h-4q-56 0 -54 58v726h-93h-2q-58 0 -57 58zM474 25q0 7 3 16l414 1453q9 33 35 33q6 0 12 -1l84 -8q34 -4 34 -29q0 -7 -3 -17l-410 -1452q-9 -33 -38 -33h-9l-88 9q-34 3 -34 29zM961 58v133 q0 59 43 98l328 303q39 36 39 81q0 41 -30 71t-71 30q-50 0 -94 -62q-15 -20 -37 -20q-10 0 -28 6l-101 36q-41 14 -41 47q0 32 51 93q105 125 251 125q135 0 231 -96t96 -233q0 -85 -43 -155q-37 -61 -79 -93l-251 -195h316h4q57 0 55 -58v-111q2 -58 -55 -58h-4h-522h-4 q-56 0 -54 58z" />
<glyph unicode="&#xbe;" horiz-adv-x="1884" d="M72 762q0 44 52 51l104 14q9 1 18 1q33 0 44 -31q28 -74 99 -74q47 0 79 44q24 33 24 75q0 95 -99 125l-54 16q-49 14 -48 65v69q-1 51 49 63l47 12q31 8 31 51q0 50 -46 50q-41 0 -106 -63q-16 -15 -28 -15q-19 0 -31 23l-42 87q-13 28 -13 42q0 27 25 57q76 92 195 92 q106 0 182 -76q77 -77 77 -185q0 -73 -51 -153q141 -113 141 -272q0 -139 -98 -237q-98 -99 -236 -99t-232 95q-83 84 -83 173zM633 28q0 6 3 17l414 1447q9 31 35 31q7 0 15 -2l84 -19q32 -7 32 -31q0 -8 -3 -18l-410 -1433q-10 -33 -34 -33q-5 0 -14 1l-88 11 q-34 4 -34 29zM1014 212v84q0 70 46 140l326 519q26 44 77 44h2h109h4q56 0 54 -58v-562h32h4q56 0 54 -58v-115q2 -58 -54 -58h-4h-32v-89q1 -59 -54 -59h-4h-111h-4q-55 0 -54 59v95h-333h-4q-56 0 -54 58zM1272 369h133v227z" />
<glyph unicode="&#xbf;" horiz-adv-x="922" d="M59 394q0 150 64 247q38 58 128 133q62 52 92 91q40 51 40 126q0 67 -23 143q-1 4 -5 21l-2 7q-2 8 -2 13q0 32 38 32h211q62 0 74 -52q26 -116 26 -207q0 -114 -53 -205q-40 -71 -142 -168q-112 -107 -112 -173q0 -64 58 -64q66 0 164 101q27 27 49 27t46 -24l116 -117 q24 -24 24 -48q0 -28 -74 -98q-173 -163 -346 -163q-183 0 -283 111q-88 97 -88 267zM342 1393q0 67 50 116q44 43 107 43q62 0 110 -48t48 -110q0 -64 -47 -110q-48 -47 -111 -47q-65 0 -111 46t-46 110z" />
<glyph unicode="&#xc0;" horiz-adv-x="1536" d="M40 38q0 11 6 27l564 1414q20 53 76 53h2h134h2q55 0 76 -53l565 -1414q6 -16 6 -27q0 -38 -51 -38h-224h-2q-56 0 -78 52l-98 224h-529l-93 -224q-21 -52 -76 -52h-2h-227q-51 0 -51 38zM515 1732q0 12 9 32l67 146q17 38 44 38q12 0 32 -8l300 -128q35 -16 35 -43 q0 -13 -12 -32l-86 -136q-20 -33 -44 -33q-11 0 -32 8l-274 112q-39 16 -39 44zM610 587h285l-139 361z" />
<glyph unicode="&#xc1;" horiz-adv-x="1536" d="M40 38q0 11 6 27l564 1414q20 53 76 53h2h134h2q55 0 76 -53l565 -1414q6 -16 6 -27q0 -38 -51 -38h-224h-2q-56 0 -78 52l-98 224h-529l-93 -224q-21 -52 -76 -52h-2h-227q-51 0 -51 38zM518 1771q0 26 35 41l301 128q20 8 32 8q27 0 45 -38l65 -146q8 -19 8 -32 q0 -28 -39 -44l-274 -112q-20 -8 -32 -8q-23 0 -44 33l-86 136q-11 19 -11 34zM610 587h285l-139 361z" />
<glyph unicode="&#xc2;" horiz-adv-x="1536" d="M40 38q0 11 6 27l564 1414q20 53 76 53h2h134h2q55 0 76 -53l565 -1414q6 -16 6 -27q0 -38 -51 -38h-224h-2q-56 0 -78 52l-98 224h-529l-93 -224q-21 -52 -76 -52h-2h-227q-51 0 -51 38zM447 1807q0 26 35 39l215 83q38 15 57 15q20 0 59 -16l221 -92q34 -15 34 -42 q0 -14 -12 -32l-91 -135q-21 -32 -44 -32q-12 0 -33 9l-134 59l-131 -49q-20 -8 -31 -8q-24 0 -45 33l-88 135q-12 18 -12 33zM610 587h285l-139 361z" />
<glyph unicode="&#xc3;" horiz-adv-x="1536" d="M40 38q0 11 6 27l564 1414q20 53 76 53h2h134h2q55 0 76 -53l565 -1414q6 -16 6 -27q0 -38 -51 -38h-224h-2q-56 0 -78 52l-98 224h-529l-93 -224q-21 -52 -76 -52h-2h-227q-51 0 -51 38zM409 1586v214q0 67 47 89q83 40 161 40q48 0 143 -27q73 -20 103 -20q68 0 187 67 q17 9 25 9q31 0 31 -39v-154q1 -52 -34 -77l-9 -6q-96 -70 -172 -70q-49 0 -151 28q-82 23 -118 23q-104 0 -181 -91q-6 -8 -15 -8q-17 0 -17 22zM610 587h285l-139 361z" />
<glyph unicode="&#xc4;" horiz-adv-x="1536" d="M40 38q0 11 6 27l564 1414q20 53 76 53h2h134h2q55 0 76 -53l565 -1414q6 -16 6 -27q0 -38 -51 -38h-224h-2q-56 0 -78 52l-98 224h-529l-93 -224q-21 -52 -76 -52h-2h-227q-51 0 -51 38zM399 1768q0 66 45 111q44 45 111 45q65 0 109 -45q45 -45 45 -111q0 -65 -44 -109 q-44 -45 -111 -45t-111 45q-44 44 -44 109zM610 587h285l-139 361zM803 1767q0 67 45 112q43 44 110 44q65 0 109 -45q45 -45 45 -111q0 -64 -44 -108q-44 -45 -112 -45q-65 0 -109 44t-44 109z" />
<glyph unicode="&#xc5;" horiz-adv-x="1536" d="M40 38q0 11 6 27l564 1414q20 53 76 53h2h134h2q55 0 76 -53l565 -1414q6 -16 6 -27q0 -38 -51 -38h-224h-2q-56 0 -78 52l-98 224h-529l-93 -224q-21 -52 -76 -52h-2h-227q-51 0 -51 38zM545 1757q0 92 63 155q61 62 154 62q90 0 153 -62q62 -63 62 -155t-63 -155 q-63 -62 -154 -62t-153 62t-62 155zM610 587h285l-139 361zM660 1757q0 -41 29 -71q30 -29 71 -29q42 0 72 30t30 70q0 41 -30 72q-30 30 -73 30q-39 0 -69 -29q-30 -31 -30 -73z" />
<glyph unicode="&#xc6;" horiz-adv-x="1909" d="M42 36q0 11 8 27l693 1417q25 52 81 52h2h895h4q65 0 63 -67v-196q2 -67 -63 -67h-4h-465v-268h465h4q65 0 63 -67v-196q2 -67 -63 -67h-4h-465v-274h465h4q65 0 63 -67v-196q2 -67 -63 -67h-4h-730h-4q-65 0 -63 67v209h-401l-121 -225q-26 -51 -82 -51h-2h-228 q-48 0 -48 36zM660 587h264v537z" />
<glyph unicode="&#xc7;" horiz-adv-x="1460" d="M96 766q0 325 228 554q229 228 556 228q276 0 461 -149q21 -17 21 -44q0 -18 -19 -42l-121 -157q-24 -31 -51 -31q-16 0 -49 21q-117 72 -243 72q-123 0 -241 -72q-99 -61 -155 -161q-57 -100 -57 -219q0 -184 128 -314q133 -136 324 -136q131 0 246 73q31 20 47 20 q27 0 51 -31l121 -159q19 -24 19 -42q0 -31 -39 -57q-201 -136 -445 -136q-26 0 -73 4l-27 -35q160 -18 160 -170q0 -101 -81 -159q-68 -50 -157 -50q-92 0 -166 31q-28 12 -28 50v89q0 33 26 33q6 0 16 -3l15 -5q56 -18 90 -18h19q33 0 33 31q0 30 -43 30h-113 q-26 0 -26 20q0 6 7 16l121 168q-218 77 -350 220q-205 223 -205 530z" />
<glyph unicode="&#xc8;" horiz-adv-x="1079" d="M102 67v1398q-2 67 63 67h4h728h4q65 0 63 -67v-196q2 -67 -63 -67h-4h-465v-268h465h4q65 0 63 -67v-196q2 -67 -63 -67h-4h-465v-274h465h4q65 0 63 -67v-196q2 -67 -63 -67h-4h-728h-4q-65 0 -63 67zM290 1732q0 13 8 32l67 146q17 38 44 38q13 0 32 -8l300 -128 q35 -15 35 -43q0 -13 -12 -32l-85 -136q-21 -33 -44 -33q-12 0 -33 8l-273 112q-39 16 -39 44z" />
<glyph unicode="&#xc9;" horiz-adv-x="1079" d="M102 67v1398q-2 67 63 67h4h728h4q65 0 63 -67v-196q2 -67 -63 -67h-4h-465v-268h465h4q65 0 63 -67v-196q2 -67 -63 -67h-4h-465v-274h465h4q65 0 63 -67v-196q2 -67 -63 -67h-4h-728h-4q-65 0 -63 67zM292 1771q0 26 35 41l302 128q20 8 32 8q27 0 44 -38l65 -146 q9 -20 9 -32q0 -28 -39 -44l-274 -112q-21 -8 -32 -8q-24 0 -44 33l-86 136q-12 19 -12 34z" />
<glyph unicode="&#xca;" horiz-adv-x="1079" d="M102 67v1398q-2 67 63 67h4h728h4q65 0 63 -67v-196q2 -67 -63 -67h-4h-465v-268h465h4q65 0 63 -67v-196q2 -67 -63 -67h-4h-465v-274h465h4q65 0 63 -67v-196q2 -67 -63 -67h-4h-728h-4q-65 0 -63 67zM223 1807q0 26 36 39l215 83q38 15 56 15q21 0 60 -16l220 -92 q35 -15 35 -42q0 -13 -13 -32l-91 -135q-21 -32 -43 -32q-13 0 -33 9l-135 59l-130 -49q-20 -8 -32 -8q-23 0 -44 33l-89 135q-12 19 -12 33z" />
<glyph unicode="&#xcb;" horiz-adv-x="1079" d="M102 67v1398q-2 67 63 67h4h728h4q65 0 63 -67v-196q2 -67 -63 -67h-4h-465v-268h465h4q65 0 63 -67v-196q2 -67 -63 -67h-4h-465v-274h465h4q65 0 63 -67v-196q2 -67 -63 -67h-4h-728h-4q-65 0 -63 67zM176 1768q0 66 45 111q44 45 111 45q65 0 109 -45q45 -45 45 -111 q0 -65 -44 -109q-44 -45 -111 -45t-111 45q-44 44 -44 109zM579 1767q0 67 45 112q43 44 110 44q65 0 109 -45q45 -45 45 -111q0 -64 -44 -108q-44 -45 -112 -45q-66 0 -109 44q-44 44 -44 109z" />
<glyph unicode="&#xcc;" horiz-adv-x="526" d="M14 1732q0 13 9 32l66 146q17 38 45 38q12 0 32 -8l299 -128q35 -15 35 -43q0 -14 -11 -32l-86 -136q-21 -33 -44 -33q-12 0 -32 8l-274 112q-39 16 -39 44zM94 67v1398q-2 67 63 67h4h196h4q65 0 63 -67v-1398q2 -67 -63 -67h-4h-196h-4q-65 0 -63 67z" />
<glyph unicode="&#xcd;" horiz-adv-x="526" d="M16 1771q0 26 35 41l302 128q19 8 32 8q27 0 44 -38l65 -146q9 -20 9 -32q0 -28 -39 -44l-274 -112q-21 -8 -33 -8q-23 0 -44 33l-85 136q-12 19 -12 34zM94 67v1398q-2 67 63 67h4h196h4q65 0 63 -67v-1398q2 -67 -63 -67h-4h-196h-4q-65 0 -63 67z" />
<glyph unicode="&#xce;" horiz-adv-x="526" d="M-55 1807q0 26 35 39l216 83q38 15 56 15q21 0 59 -16l221 -92q35 -15 35 -42q0 -12 -13 -32l-91 -135q-21 -32 -44 -32q-12 0 -33 9l-134 59l-130 -49q-21 -8 -32 -8q-23 0 -45 33l-88 135q-12 19 -12 33zM94 67v1398q-2 67 63 67h4h196h4q65 0 63 -67v-1398 q2 -67 -63 -67h-4h-196h-4q-65 0 -63 67z" />
<glyph unicode="&#xcf;" horiz-adv-x="526" d="M-102 1768q0 66 45 111q44 45 111 45q65 0 109 -45q45 -45 45 -111q0 -65 -44 -109q-44 -45 -111 -45t-111 45q-44 44 -44 109zM95 67v1398q-2 67 63 67h4h196h4q65 0 63 -67v-1398q2 -67 -63 -67h-4h-196h-4q-65 0 -63 67zM301 1767q0 67 45 112q43 44 110 44 q65 0 109 -45q45 -45 45 -111q0 -64 -44 -108q-44 -45 -112 -45q-66 0 -109 44q-44 44 -44 109z" />
<glyph unicode="&#xd0;" horiz-adv-x="1708" d="M102 659v140q-2 67 63 67h4h134v599q-2 67 63 67h4h445q319 0 545 -226q225 -225 225 -540t-225 -540q-226 -226 -545 -226h-447h-4q-65 0 -63 67l2 525h-134h-4q-65 0 -63 67zM635 330h180q193 0 316 123q122 122 122 314q0 196 -122 317q-118 118 -306 118h-190v-336 h135h4q65 0 63 -67v-140q2 -67 -63 -67h-4h-135v-262z" />
<glyph unicode="&#xd1;" horiz-adv-x="1456" d="M104 67v1398q-2 67 63 67h4h175h2q59 0 93 -50l581 -835v816q-2 67 63 67h4h179h4q65 0 63 -67v-1396q2 -67 -63 -67h-4h-173h-2q-59 0 -93 50l-583 837v-820q2 -67 -63 -67h-4h-179h-4q-65 0 -63 67zM384 1608v214q0 68 48 90q85 40 159 40q48 0 144 -27q73 -21 103 -21 q68 0 187 67q17 9 25 9q31 0 31 -38v-154q1 -52 -35 -78l-8 -6q-96 -70 -172 -70q-49 0 -151 29q-83 23 -118 23q-103 0 -181 -92q-6 -8 -15 -8q-17 0 -17 22z" />
<glyph unicode="&#xd2;" horiz-adv-x="1794" d="M100 766q0 324 228 554q227 228 561 228q318 0 547 -228q229 -229 229 -554t-229 -554q-229 -228 -554 -228t-554 228q-228 229 -228 554zM430 767q0 -185 133 -318q134 -133 320 -133t318 132t132 318q0 188 -133 321q-129 131 -321 131q-183 0 -316 -132 q-133 -133 -133 -319zM644 1732q0 12 9 32l66 146q18 38 45 38q12 0 32 -8l299 -128q36 -16 36 -43q0 -12 -12 -32l-86 -136q-21 -33 -44 -33q-11 0 -32 8l-274 112q-39 16 -39 44z" />
<glyph unicode="&#xd3;" horiz-adv-x="1794" d="M100 766q0 324 228 554q227 228 561 228q318 0 547 -228q229 -229 229 -554t-229 -554q-229 -228 -554 -228t-554 228q-228 229 -228 554zM430 767q0 -185 133 -318q134 -133 320 -133t318 132t132 318q0 188 -133 321q-129 131 -321 131q-183 0 -316 -132 q-133 -133 -133 -319zM646 1771q0 25 35 41l302 128q20 8 32 8q27 0 44 -38l66 -146q8 -19 8 -32q0 -28 -39 -44l-274 -112q-21 -8 -32 -8q-23 0 -44 33l-86 136q-12 20 -12 34z" />
<glyph unicode="&#xd4;" horiz-adv-x="1794" d="M100 766q0 324 228 554q227 228 561 228q318 0 547 -228q229 -229 229 -554t-229 -554q-229 -228 -554 -228t-554 228q-228 229 -228 554zM430 767q0 -185 133 -318q134 -133 320 -133t318 132t132 318q0 188 -133 321q-129 131 -321 131q-183 0 -316 -132 q-133 -133 -133 -319zM576 1807q0 26 35 39l215 83q38 15 57 15q20 0 59 -16l221 -92q34 -15 34 -42q0 -13 -12 -32l-91 -135q-21 -32 -44 -32q-12 0 -33 9l-135 59l-130 -49q-20 -8 -31 -8q-24 0 -45 33l-88 135q-12 18 -12 33z" />
<glyph unicode="&#xd5;" horiz-adv-x="1794" d="M100 766q0 324 228 554q227 228 561 228q318 0 547 -228q229 -229 229 -554t-229 -554q-229 -228 -554 -228t-554 228q-228 229 -228 554zM430 767q0 -185 133 -318q134 -133 320 -133t318 132t132 318q0 188 -133 321q-129 131 -321 131q-183 0 -316 -132 q-133 -133 -133 -319zM537 1586v217q0 67 54 89q90 37 154 37q48 0 143 -27q74 -20 104 -20q67 0 187 67q17 9 25 9q31 0 31 -39v-154q1 -52 -35 -77l-8 -6q-96 -70 -172 -70q-50 0 -152 28q-82 23 -118 23q-104 0 -181 -91q-6 -8 -15 -8q-17 0 -17 22z" />
<glyph unicode="&#xd6;" horiz-adv-x="1794" d="M100 766q0 324 228 554q227 228 561 228q318 0 547 -228q229 -229 229 -554t-229 -554q-229 -228 -554 -228t-554 228q-228 229 -228 554zM430 767q0 -185 133 -318q134 -133 320 -133t318 132t132 318q0 188 -133 321q-129 131 -321 131q-183 0 -316 -132 q-133 -133 -133 -319zM528 1768q0 66 45 111q44 45 111 45q65 0 109 -45q45 -45 45 -111q0 -65 -44 -109q-44 -45 -111 -45t-111 45q-44 44 -44 109zM931 1767q0 67 45 112q43 44 110 44q65 0 109 -45q45 -45 45 -111q0 -64 -44 -108q-44 -45 -112 -45q-65 0 -109 44 t-44 109z" />
<glyph unicode="&#xd7;" horiz-adv-x="1176" d="M166 256q0 22 25 47l221 219l-217 217q-24 24 -24 47t25 47l95 92q25 24 46 24q23 0 48 -25l213 -213l219 219q24 24 47 24t48 -24l94 -94q24 -25 24 -48t-24 -47l-217 -219l215 -215q25 -25 25 -47t-24 -47l-94 -97q-24 -25 -47 -25t-47 24l-219 219l-219 -221 q-25 -25 -47 -25t-47 25l-95 96q-24 24 -24 47z" />
<glyph unicode="&#xd8;" horiz-adv-x="1794" d="M100 765q0 327 228 555q229 228 558 228q59 0 113 -8l17 57q9 35 44 35h2h107q34 0 34 -28q0 -6 -2 -14l-26 -99q200 -87 314 -224q176 -211 176 -499q0 -327 -229 -556q-229 -228 -553 -228q-73 0 -144 12l-16 -54q-10 -34 -45 -34h-2h-110q-34 0 -34 25q0 7 3 16 l32 100q-191 87 -301 227q-166 211 -166 489zM430 766q0 -254 229 -391l246 844h-23q-186 0 -319 -133t-133 -320zM837 317q14 -2 39 -2h6q187 0 319 133q132 132 132 317q0 265 -252 405z" />
<glyph unicode="&#xd9;" horiz-adv-x="1243" d="M102 446v1017q-2 67 63 67h4h196h4q65 0 63 -67v-978q0 -75 68 -124q56 -39 121 -39q69 0 120 42q57 45 57 113v986q-2 67 63 67h4h196h4q65 0 63 -67v-1017q0 -217 -188 -353q-143 -103 -320 -103q-234 0 -392 159q-126 127 -126 297zM372 1732q0 13 8 32l67 146 q17 38 44 38q13 0 32 -8l300 -128q35 -15 35 -43q0 -13 -12 -32l-85 -136q-21 -33 -44 -33q-12 0 -33 8l-274 112q-38 16 -38 44z" />
<glyph unicode="&#xda;" horiz-adv-x="1243" d="M102 446v1017q-2 67 63 67h4h196h4q65 0 63 -67v-978q0 -75 68 -124q56 -39 121 -39q69 0 120 42q57 45 57 113v986q-2 67 63 67h4h196h4q65 0 63 -67v-1017q0 -217 -188 -353q-143 -103 -320 -103q-234 0 -392 159q-126 127 -126 297zM374 1771q0 26 35 41l302 128 q19 8 31 8q28 0 45 -38l65 -146q9 -20 9 -32q0 -28 -39 -44l-274 -112q-21 -8 -33 -8q-23 0 -44 33l-85 136q-12 19 -12 34z" />
<glyph unicode="&#xdb;" horiz-adv-x="1243" d="M102 446v1017q-2 67 63 67h4h196h4q65 0 63 -67v-978q0 -75 68 -124q56 -39 121 -39q69 0 120 42q57 45 57 113v986q-2 67 63 67h4h196h4q65 0 63 -67v-1017q0 -217 -188 -353q-143 -103 -320 -103q-234 0 -392 159q-126 127 -126 297zM305 1807q0 26 36 39l215 83 q38 15 56 15q21 0 60 -16l220 -92q35 -15 35 -42q0 -13 -13 -32l-91 -135q-21 -32 -43 -32q-13 0 -34 9l-134 59l-130 -49q-20 -8 -32 -8q-23 0 -44 33l-89 135q-12 19 -12 33z" />
<glyph unicode="&#xdc;" horiz-adv-x="1243" d="M102 446v1017q-2 67 63 67h4h196h4q65 0 63 -67v-978q0 -75 68 -124q56 -39 121 -39q69 0 120 42q57 45 57 113v986q-2 67 63 67h4h196h4q65 0 63 -67v-1017q0 -217 -188 -353q-143 -103 -320 -103q-234 0 -392 159q-126 127 -126 297zM258 1768q0 66 45 111 q44 45 111 45q65 0 109 -45q45 -45 45 -111q0 -65 -44 -109q-44 -45 -111 -45t-111 45q-44 44 -44 109zM661 1767q0 67 45 112q43 44 110 44q65 0 109 -45q45 -44 45 -111q0 -64 -44 -108q-44 -45 -112 -45q-65 0 -109 44t-44 109z" />
<glyph unicode="&#xdd;" horiz-adv-x="1217" d="M27 1495q0 37 50 37h237h2q55 0 76 -53l206 -516l208 514q21 53 76 53h2h233q50 0 50 -37q0 -11 -7 -28l-396 -912v-486q2 -67 -63 -67h-4h-196h-4q-65 0 -63 67v486l-400 914q-7 17 -7 28zM358 1771q0 26 35 41l301 128q20 8 32 8q27 0 45 -38l65 -146q8 -18 8 -32 q0 -28 -38 -44l-275 -112q-20 -8 -32 -8q-23 0 -44 33l-85 136q-12 19 -12 34z" />
<glyph unicode="&#xde;" horiz-adv-x="1788" d="M102 67v1398q-2 67 63 67h4h198h4q65 0 63 -67v-205h148q195 0 323 -130q133 -134 133 -339q0 -215 -140 -354q-127 -126 -314 -126h-150v-244q2 -67 -63 -67h-4h-198h-4q-65 0 -63 67zM434 641h150q67 0 100 58q24 42 24 91q0 67 -43 108q-32 30 -81 30h-150v-287z" />
<glyph unicode="&#xdf;" horiz-adv-x="1147" d="M106 67v1035q0 164 123 288t294 124q175 0 304 -116q137 -124 137 -310q0 -139 -76 -250q162 -154 162 -360q0 -211 -141 -351q-127 -127 -310 -127h-37h-4q-65 0 -63 67v192q-2 67 65 67h2h25q67 0 105 53q33 47 33 105q0 112 -149 168q-37 17 -36 64v164q-1 50 43 68 q68 30 68 117q0 52 -34 86q-35 35 -87 35q-62 0 -86 -43q-12 -21 -12 -41v-1035q2 -67 -63 -67h-4h-192h-4q-65 0 -63 67z" />
<glyph unicode="&#xe0;" horiz-adv-x="1202" d="M42 512q0 217 154 372q154 156 373 156q126 0 241 -59q3 43 50 43h2h169h4q65 0 63 -67v-900q1 -67 -63 -67h-4h-132h-6q-60 0 -61 58v7q-126 -71 -264 -71q-218 0 -372 156q-154 155 -154 372zM348 1322q0 14 8 32l67 146q17 38 45 38q12 0 31 -8l300 -128 q35 -15 35 -43q0 -13 -12 -31l-85 -137q-21 -32 -45 -32q-13 0 -32 8l-274 111q-38 16 -38 44zM353 512q0 -93 63 -156q62 -63 152 -63q92 0 154 62q63 63 63 157q0 93 -63 157q-62 62 -155 62q-89 0 -151 -63q-63 -63 -63 -156z" />
<glyph unicode="&#xe1;" horiz-adv-x="1202" d="M42 512q0 217 154 372q154 156 373 156q126 0 241 -59q3 43 50 43h2h169h4q65 0 63 -67v-900q1 -67 -63 -67h-4h-132h-6q-60 0 -61 58v7q-126 -71 -264 -71q-218 0 -372 156q-154 155 -154 372zM350 1361q0 26 35 41l301 128q19 8 32 8q28 0 45 -38l65 -146q8 -17 8 -31 q0 -29 -38 -45l-274 -111q-19 -8 -32 -8q-24 0 -45 32l-85 137q-12 18 -12 33zM353 512q0 -93 63 -156q62 -63 152 -63q92 0 154 62q63 63 63 157q0 93 -63 157q-62 62 -155 62q-89 0 -151 -63q-63 -63 -63 -156z" />
<glyph unicode="&#xe2;" horiz-adv-x="1202" d="M42 512q0 217 154 372q154 156 373 156q126 0 241 -59q3 43 50 43h2h169h4q65 0 63 -67v-900q1 -67 -63 -67h-4h-132h-6q-60 0 -61 58v7q-126 -71 -264 -71q-218 0 -372 156q-154 155 -154 372zM281 1398q0 25 35 39l216 83q36 14 56 14q22 0 60 -16l220 -92 q35 -14 35 -42q0 -12 -13 -31l-91 -136q-21 -31 -44 -31q-13 0 -33 9l-134 59l-130 -50q-19 -7 -32 -7q-24 0 -44 32l-89 136q-12 18 -12 33zM353 512q0 -93 63 -156q62 -63 152 -63q92 0 154 62q63 63 63 157q0 93 -63 157q-62 62 -155 62q-89 0 -151 -63q-63 -63 -63 -156 z" />
<glyph unicode="&#xe3;" horiz-adv-x="1202" d="M42 512q0 217 154 372q154 156 373 156q126 0 241 -59q3 43 50 43h2h169h4q65 0 63 -67v-900q1 -67 -63 -67h-4h-132h-6q-60 0 -61 58v7q-126 -71 -264 -71q-218 0 -372 156q-154 155 -154 372zM243 1176v214q-1 65 47 90l18 7q81 33 143 33q47 0 143 -27q73 -21 103 -21 q68 0 187 67q16 9 25 9q31 0 31 -38v-154q1 -52 -35 -78l-8 -6q-96 -70 -172 -70q-49 0 -151 29q-83 23 -118 23q-103 0 -181 -92q-6 -8 -15 -8q-17 0 -17 22zM353 512q0 -93 63 -156q62 -63 152 -63q92 0 154 62q63 63 63 157q0 93 -63 157q-62 62 -155 62q-89 0 -151 -63 q-63 -63 -63 -156z" />
<glyph unicode="&#xe4;" horiz-adv-x="1202" d="M42 512q0 217 154 372q154 156 373 156q126 0 241 -59q3 43 50 43h2h169h4q65 0 63 -67v-900q1 -67 -63 -67h-4h-132h-6q-60 0 -61 58v7q-126 -71 -264 -71q-218 0 -372 156q-154 155 -154 372zM234 1358q0 66 45 111q44 45 111 45q65 0 109 -45q45 -45 45 -111 q0 -65 -44 -109q-44 -45 -111 -45t-111 45q-44 44 -44 109zM353 512q0 -93 63 -156q62 -63 152 -63q92 0 154 62q63 63 63 157q0 93 -63 157q-62 62 -155 62q-89 0 -151 -63q-63 -63 -63 -156zM637 1357q0 67 45 112q43 44 110 44q65 0 109 -45q45 -45 45 -111 q0 -64 -44 -108q-44 -45 -112 -45q-65 0 -109 44t-44 109z" />
<glyph unicode="&#xe5;" horiz-adv-x="1202" d="M42 512q0 217 154 372q154 156 373 156q126 0 241 -59q3 43 50 43h2h169h4q65 0 63 -67v-900q1 -67 -63 -67h-4h-132h-6q-60 0 -61 58v7q-126 -71 -264 -71q-218 0 -372 156q-154 155 -154 372zM353 512q0 -93 63 -156q62 -63 152 -63q92 0 154 62q63 63 63 157 q0 93 -63 157q-62 62 -155 62q-89 0 -151 -63q-63 -63 -63 -156zM377 1347q0 93 63 156q61 62 154 62q90 0 153 -62q62 -63 62 -155t-63 -155q-63 -62 -154 -62q-92 0 -153 62q-62 62 -62 154zM492 1348q0 -41 29 -71q30 -29 71 -29q42 0 72 30t30 70q0 41 -30 72 q-31 30 -73 30q-39 0 -69 -30t-30 -72z" />
<glyph unicode="&#xe6;" horiz-adv-x="1896" d="M41 513q0 217 154 371q155 156 374 156q126 0 240 -59q4 43 51 43h2h188h2q42 0 46 -39q111 53 229 53q228 0 355 -174q102 -141 102 -338q0 -45 -4 -71q-7 -49 -68 -49h-565q44 -127 210 -127q101 0 209 42q19 8 30 8q36 0 54 -44l53 -129q10 -23 10 -37q0 -29 -38 -51 q-146 -84 -335 -84q-133 0 -242 53q-4 -47 -54 -47h-4h-142h-6q-60 0 -60 58v7q-128 -71 -265 -71q-217 0 -372 156q-154 155 -154 373zM352 512q0 -93 63 -156q62 -63 152 -63q92 0 154 62q63 63 63 157t-63 157q-61 62 -155 62q-89 0 -151 -62q-63 -64 -63 -157zM1149 642 h319q-19 98 -154 98q-117 0 -165 -98z" />
<glyph unicode="&#xe7;" horiz-adv-x="1126" d="M57 514q0 217 153 371q155 155 373 155q219 0 388 -174q41 -41 41 -66q0 -28 -32 -51l-128 -96q-25 -18 -45 -18q-21 0 -40 16l-5 4q-84 72 -170 72q-91 0 -154 -63q-62 -62 -62 -151t62 -152q63 -62 153 -62q87 0 180 100q16 18 41 18q14 0 36 -11l160 -80 q39 -20 39 -52q0 -38 -81 -121q-134 -139 -331 -167l-25 -33q160 -18 160 -170q0 -101 -81 -159q-68 -50 -155 -50q-94 0 -168 31q-28 12 -28 50v89q0 33 26 33q6 0 15 -3l16 -5q56 -18 90 -18h19q33 0 33 31q0 30 -43 30h-113q-26 0 -26 21q0 6 7 15l107 150 q-188 50 -294 181q-118 145 -118 335z" />
<glyph unicode="&#xe8;" horiz-adv-x="1092" d="M43 514q0 218 154 371t371 153q229 0 356 -174q102 -141 102 -338q0 -45 -4 -71q-7 -49 -68 -49h-565q44 -128 210 -128q100 0 209 43q20 8 31 8q35 0 53 -44l53 -129q10 -23 10 -37q0 -29 -38 -51q-147 -85 -330 -85q-234 0 -389 155t-155 376zM292 1322q0 13 9 32 l66 146q18 38 45 38q13 0 32 -8l300 -128q35 -15 35 -43q0 -12 -12 -31l-86 -137q-20 -32 -44 -32q-13 0 -32 8l-274 111q-39 16 -39 44zM391 642h320q-20 98 -155 98q-117 0 -165 -98z" />
<glyph unicode="&#xe9;" horiz-adv-x="1092" d="M43 514q0 218 154 371t371 153q229 0 356 -174q102 -141 102 -338q0 -45 -4 -71q-7 -49 -68 -49h-565q44 -128 210 -128q100 0 209 43q20 8 31 8q35 0 53 -44l53 -129q10 -23 10 -37q0 -29 -38 -51q-147 -85 -330 -85q-234 0 -389 155t-155 376zM294 1361q0 26 36 41 l301 128q19 8 32 8q27 0 45 -38l65 -146q8 -18 8 -32q0 -28 -39 -44l-274 -111q-19 -8 -32 -8q-24 0 -44 32l-86 137q-12 19 -12 33zM391 642h320q-20 98 -155 98q-117 0 -165 -98z" />
<glyph unicode="&#xea;" horiz-adv-x="1092" d="M43 514q0 218 154 371t371 153q229 0 356 -174q102 -141 102 -338q0 -45 -4 -71q-7 -49 -68 -49h-565q44 -128 210 -128q100 0 209 43q20 8 31 8q35 0 53 -44l53 -129q10 -23 10 -37q0 -29 -38 -51q-147 -85 -330 -85q-234 0 -389 155t-155 376zM226 1397q0 27 35 40 l215 83q37 14 57 14q21 0 59 -16l221 -92q34 -14 34 -42q0 -13 -12 -31l-91 -136q-21 -31 -44 -31q-13 0 -33 9l-135 59l-130 -50q-19 -7 -31 -7q-24 0 -45 32l-88 136q-12 18 -12 32zM391 642h320q-20 98 -155 98q-117 0 -165 -98z" />
<glyph unicode="&#xeb;" horiz-adv-x="1092" d="M43 514q0 218 154 371t371 153q229 0 356 -174q102 -141 102 -338q0 -45 -4 -71q-7 -49 -68 -49h-565q44 -128 210 -128q100 0 209 43q20 8 31 8q35 0 53 -44l53 -129q10 -23 10 -37q0 -29 -38 -51q-147 -85 -330 -85q-234 0 -389 155t-155 376zM178 1358q0 66 45 111 q44 45 111 45q65 0 109 -45q45 -45 45 -111q0 -65 -44 -109q-44 -45 -111 -45t-111 45q-44 44 -44 109zM391 642h320q-20 98 -155 98q-117 0 -165 -98zM582 1357q0 67 45 112q43 44 110 44q64 0 109 -45t45 -111q0 -64 -44 -108q-44 -45 -112 -45q-66 0 -109 44 q-44 44 -44 109z" />
<glyph unicode="&#xec;" horiz-adv-x="430" d="M-27 1322q0 13 9 32l66 146q17 38 45 38q13 0 32 -8l299 -128q35 -15 35 -43q0 -13 -11 -31l-86 -137q-20 -32 -45 -32q-12 0 -31 8l-274 111q-39 16 -39 44zM55 67v890q-2 67 63 67h4h179h4q65 0 63 -67v-890q2 -67 -63 -67h-4h-179h-4q-65 0 -63 67z" />
<glyph unicode="&#xed;" horiz-adv-x="430" d="M-23 1361q0 26 35 41l302 128q19 8 31 8q28 0 45 -38l65 -146q9 -20 9 -32q0 -28 -39 -44l-274 -111q-19 -8 -32 -8q-24 0 -45 32l-85 137q-12 19 -12 33zM55 67v890q-2 67 63 67h4h179h4q65 0 63 -67v-890q2 -67 -63 -67h-4h-179h-4q-65 0 -63 67z" />
<glyph unicode="&#xee;" horiz-adv-x="430" d="M-94 1398q0 25 35 39l216 83q36 14 56 14q22 0 59 -16l221 -92q35 -14 35 -42q0 -12 -13 -31l-91 -136q-21 -31 -44 -31q-13 0 -33 9l-134 59l-130 -50q-19 -7 -31 -7q-25 0 -46 32l-88 136q-12 18 -12 33zM55 67v890q-2 67 63 67h4h179h4q65 0 63 -67v-890 q2 -67 -63 -67h-4h-179h-4q-65 0 -63 67z" />
<glyph unicode="&#xef;" horiz-adv-x="430" d="M-139 1358q0 66 45 111q44 45 111 45q65 0 109 -45q45 -45 45 -111q0 -65 -44 -109q-44 -45 -111 -45t-111 45q-44 44 -44 109zM56 67v890q-2 67 63 67h4h179h4q65 0 63 -67v-890q2 -67 -63 -67h-4h-179h-4q-65 0 -63 67zM264 1357q0 67 45 112q43 44 110 44 q64 0 109 -45t45 -111q0 -64 -44 -108q-44 -45 -112 -45q-66 0 -109 44q-44 44 -44 109z" />
<glyph unicode="&#xf0;" horiz-adv-x="1311" d="M111 529q0 171 98 302q44 60 109 108q111 82 205 95q104 14 104 22q0 2 -2 5l-43 63l-55 -39q-20 -15 -36 -15q-25 0 -45 29l-68 97q-15 21 -15 36q0 25 28 45l58 42l-23 33q-15 22 -15 36q0 24 28 45l139 102q21 16 36 16q24 0 45 -26l30 -36l58 40q21 15 35 15 q26 0 46 -29l67 -97q15 -21 15 -35q0 -25 -30 -46l-64 -45l311 -489q74 -117 74 -272q0 -228 -160 -388q-159 -159 -385 -159t-386 159q-159 160 -159 386zM422 528q0 -101 66 -167t169 -66q102 0 168 65q65 66 65 168q0 101 -66 168q-66 66 -170 66q-98 0 -165 -67 q-67 -66 -67 -167z" />
<glyph unicode="&#xf1;" horiz-adv-x="1092" d="M80 67v894q-2 67 63 67h4h139h2q42 0 46 -39q82 51 209 51q228 0 349 -135q106 -118 106 -321v-517q2 -67 -63 -67h-4h-179h-4q-65 0 -63 67v513q0 61 -43 104t-103 43q-58 0 -101 -39q-47 -43 -47 -98v-523q2 -67 -63 -67h-4h-177h-4q-65 0 -63 67zM192 1176v234 q0 50 40 67q102 43 167 43q49 0 144 -27q73 -21 103 -21q68 0 187 67q16 9 25 9q31 0 31 -38v-154q1 -52 -35 -78l-8 -6q-96 -70 -172 -70q-49 0 -151 29q-83 23 -118 23q-103 0 -181 -92q-6 -8 -15 -8q-17 0 -17 22z" />
<glyph unicode="&#xf2;" horiz-adv-x="1192" d="M59 513q0 218 154 373q152 154 378 154q215 0 369 -154t154 -372q0 -222 -155 -377q-154 -153 -372 -153q-219 0 -373 153q-155 155 -155 376zM343 1322q0 13 9 32l66 146q17 38 45 38q13 0 32 -8l299 -128q35 -15 35 -43q0 -13 -11 -31l-86 -137q-20 -32 -44 -32 q-13 0 -32 8l-274 111q-39 16 -39 44zM372 514q0 -90 62 -153q63 -62 153 -62q89 0 151 62q63 63 63 152q0 88 -63 151q-62 63 -153 63q-88 0 -151 -63q-62 -62 -62 -150z" />
<glyph unicode="&#xf3;" horiz-adv-x="1192" d="M59 513q0 218 154 373q152 154 378 154q215 0 369 -154t154 -372q0 -222 -155 -377q-154 -153 -372 -153q-219 0 -373 153q-155 155 -155 376zM345 1361q0 26 35 41l302 128q19 8 32 8q27 0 44 -38l65 -146q9 -19 9 -32q0 -28 -39 -44l-274 -111q-19 -8 -32 -8 q-24 0 -44 32l-86 137q-12 19 -12 33zM372 514q0 -90 62 -153q63 -62 153 -62q89 0 151 62q63 63 63 152q0 88 -63 151q-62 63 -153 63q-88 0 -151 -63q-62 -62 -62 -150z" />
<glyph unicode="&#xf4;" horiz-adv-x="1192" d="M59 513q0 218 154 373q152 154 378 154q215 0 369 -154t154 -372q0 -222 -155 -377q-154 -153 -372 -153q-219 0 -373 153q-155 155 -155 376zM274 1398q0 25 36 39l215 83q37 14 57 14q21 0 59 -16l221 -92q34 -14 34 -42q0 -13 -12 -31l-91 -136q-21 -31 -44 -31 q-14 0 -33 9l-135 59l-130 -50q-19 -7 -31 -7q-24 0 -45 32l-89 136q-12 19 -12 33zM372 514q0 -90 62 -153q63 -62 153 -62q89 0 151 62q63 63 63 152q0 88 -63 151q-62 63 -153 63q-88 0 -151 -63q-62 -62 -62 -150z" />
<glyph unicode="&#xf5;" horiz-adv-x="1192" d="M59 513q0 218 154 373q152 154 378 154q215 0 369 -154t154 -372q0 -222 -155 -377q-154 -153 -372 -153q-219 0 -373 153q-155 155 -155 376zM236 1176v211q0 73 50 94q92 39 157 39q49 0 144 -27q73 -21 103 -21q68 0 187 67q17 9 25 9q31 0 31 -38v-154q1 -52 -35 -78 l-8 -6q-96 -70 -172 -70q-49 0 -152 29q-82 23 -117 23q-103 0 -181 -92q-6 -8 -15 -8q-17 0 -17 22zM372 514q0 -90 62 -153q63 -62 153 -62q89 0 151 62q63 63 63 152q0 88 -63 151q-62 63 -153 63q-88 0 -151 -63q-62 -62 -62 -150z" />
<glyph unicode="&#xf6;" horiz-adv-x="1192" d="M59 513q0 218 154 373q152 154 378 154q215 0 369 -154t154 -372q0 -222 -155 -377q-154 -153 -372 -153q-219 0 -373 153q-155 155 -155 376zM227 1358q0 66 45 111q44 45 111 45q64 0 109 -45t45 -111q0 -65 -44 -109q-44 -45 -111 -45t-111 45q-44 44 -44 109z M372 514q0 -90 62 -153q63 -62 153 -62q89 0 151 62q63 63 63 152q0 88 -63 151q-62 63 -153 63q-88 0 -151 -63q-62 -62 -62 -150zM630 1357q0 67 45 112q43 44 110 44q65 0 109 -45q45 -45 45 -111q0 -64 -44 -108q-44 -45 -112 -45q-65 0 -109 44t-44 109z" />
<glyph unicode="&#xf7;" d="M92 456v136q-2 67 63 67h4h890h4q65 0 63 -67v-136q2 -67 -63 -67h-4h-890h-4q-65 0 -63 67zM426 199q0 73 51 125q51 51 126 51q73 0 124 -51t51 -125q0 -73 -51 -124q-52 -52 -125 -52t-125 52q-51 51 -51 124zM426 848q0 73 51 125q51 51 126 51q73 0 124 -51t51 -125 t-51 -125t-125 -51q-73 0 -125 51q-51 51 -51 125z" />
<glyph unicode="&#xf8;" horiz-adv-x="1192" d="M59 513q0 220 154 373q154 155 374 155h13q31 -1 47 -3l20 71q10 34 45 34h2h96q34 0 34 -28q0 -6 -2 -14l-31 -112q121 -62 192 -153q111 -143 111 -323q0 -173 -101 -313q-158 -217 -453 -217q-24 0 -42 5q-7 -22 -9 -29q-17 -61 -25 -70q-12 -10 -34 -10h-90 q-34 0 -34 28q0 6 2 14l30 114q-299 155 -299 478zM348 513q0 -117 92 -191l125 430q-96 -14 -154 -76q-63 -68 -63 -163zM600 274q102 11 163 75q66 69 66 166q0 119 -100 192z" />
<glyph unicode="&#xf9;" horiz-adv-x="1096" d="M80 440v517q-2 67 63 67h4h177h4q65 0 63 -67v-513q0 -61 44 -104t104 -43q57 0 99 38q47 43 47 99v523q-2 67 63 67h4h179h4q65 0 63 -67v-896q2 -67 -63 -67h-4h-137h-2q-44 0 -48 41q-84 -51 -209 -51q-228 0 -349 135q-106 118 -106 321zM299 1323q0 13 8 31l67 146 q17 38 44 38q13 0 32 -8l300 -128q35 -15 35 -43q0 -12 -12 -31l-86 -137q-20 -32 -44 -32q-13 0 -32 8l-274 111q-38 16 -38 45z" />
<glyph unicode="&#xfa;" horiz-adv-x="1096" d="M80 440v517q-2 67 63 67h4h177h4q65 0 63 -67v-513q0 -61 44 -104t104 -43q57 0 99 38q47 43 47 99v523q-2 67 63 67h4h179h4q65 0 63 -67v-896q2 -67 -63 -67h-4h-137h-2q-44 0 -48 41q-84 -51 -209 -51q-228 0 -349 135q-106 118 -106 321zM301 1361q0 26 35 41 l301 128q19 8 32 8q28 0 45 -38l65 -146q8 -18 8 -31q0 -29 -38 -45l-274 -111q-20 -8 -32 -8q-25 0 -45 32l-85 137q-12 18 -12 33z" />
<glyph unicode="&#xfb;" horiz-adv-x="1096" d="M80 440v517q-2 67 63 67h4h177h4q65 0 63 -67v-513q0 -61 44 -104t104 -43q57 0 99 38q47 43 47 99v523q-2 67 63 67h4h179h4q65 0 63 -67v-896q2 -67 -63 -67h-4h-137h-2q-44 0 -48 41q-84 -51 -209 -51q-228 0 -349 135q-106 118 -106 321zM232 1398q0 25 35 39l216 83 q36 14 56 14q22 0 59 -16l221 -92q35 -14 35 -42q0 -12 -13 -31l-91 -136q-21 -31 -44 -31q-13 0 -33 9l-134 59l-130 -50q-19 -7 -31 -7q-25 0 -46 32l-88 136q-12 18 -12 33z" />
<glyph unicode="&#xfc;" horiz-adv-x="1096" d="M80 440v517q-2 67 63 67h4h177h4q65 0 63 -67v-513q0 -61 44 -104t104 -43q57 0 99 38q47 43 47 99v523q-2 67 63 67h4h179h4q65 0 63 -67v-896q2 -67 -63 -67h-4h-137h-2q-44 0 -48 41q-84 -51 -209 -51q-228 0 -349 135q-106 118 -106 321zM184 1358q0 66 45 111 q44 45 111 45q65 0 109 -45q45 -45 45 -111q0 -65 -44 -109q-44 -45 -111 -45t-111 45q-44 44 -44 109zM588 1357q0 67 45 112q43 44 110 44q64 0 109 -45t45 -111q0 -64 -44 -108q-44 -45 -112 -45q-66 0 -109 44q-44 44 -44 109z" />
<glyph unicode="&#xfd;" horiz-adv-x="977" d="M22 984q0 40 53 40h208h2q56 0 72 -55l123 -424l123 424q15 55 72 55h2h202q52 0 52 -41q0 -11 -5 -25l-444 -1310q-18 -54 -74 -54h-2h-204q-53 0 -53 40q0 10 6 26l159 454v19l-287 825q-5 16 -5 26zM238 1361q0 26 35 41l301 128q19 8 32 8q28 0 45 -38l65 -146 q8 -18 8 -32q0 -28 -39 -44l-274 -111q-19 -8 -32 -8q-24 0 -44 32l-86 137q-11 18 -11 33z" />
<glyph unicode="&#xfe;" horiz-adv-x="1231" d="M82 -339v1687q-2 67 63 67h4h179h4q65 0 63 -67v-353q113 45 217 45q219 0 375 -156t156 -372t-156 -372t-372 -156q-110 0 -220 49v-372q2 -67 -63 -67h-4h-179h-4q-65 0 -63 67zM397 512q0 -93 63 -156t154 -63q90 0 154 63t64 156q0 92 -64 156q-63 63 -156 63 q-89 0 -152 -63t-63 -156z" />
<glyph unicode="&#xff;" horiz-adv-x="977" d="M22 984q0 40 53 40h208h2q56 0 72 -55l123 -424l123 424q15 55 72 55h2h202q52 0 52 -41q0 -11 -5 -25l-444 -1310q-18 -54 -74 -54h-2h-204q-53 0 -53 40q0 10 6 26l159 454v19l-287 825q-5 16 -5 26zM121 1358q0 66 45 111q44 45 111 45q65 0 109 -45q45 -45 45 -111 q0 -65 -44 -109q-44 -45 -111 -45t-111 45q-44 44 -44 109zM525 1357q0 67 45 112q43 44 110 44q65 0 109 -45q45 -45 45 -111q0 -64 -44 -108q-44 -45 -112 -45q-65 0 -109 44t-44 109z" />
<glyph unicode="&#x152;" horiz-adv-x="2314" d="M100 766q0 325 228 554q229 228 554 228q242 0 457 -147v64q-1 67 63 67h4h728h4q65 0 63 -67v-196q2 -67 -63 -67h-4h-465v-268h465h4q65 0 63 -67v-196q2 -67 -63 -67h-4h-465v-274h465h4q65 0 63 -67v-196q2 -67 -63 -67h-4h-728h-4q-65 0 -63 67v62 q-212 -145 -456 -145q-326 0 -555 228q-228 229 -228 554zM430 766q0 -185 133 -317q134 -133 320 -133t318 132t132 318q0 188 -133 321q-129 131 -321 131q-183 0 -316 -132q-133 -133 -133 -320z" />
<glyph unicode="&#x153;" horiz-adv-x="1849" d="M59 514q0 219 154 372q154 154 374 154q210 0 375 -155q163 153 373 153q228 0 355 -174q102 -140 102 -338q0 -46 -4 -71q-7 -49 -68 -49h-565q44 -128 210 -128q100 0 209 43q19 8 30 8q35 0 53 -44l54 -129q9 -22 9 -36q0 -30 -38 -52q-147 -85 -331 -85 q-227 0 -391 156q-161 -155 -373 -155q-220 0 -373 153q-155 155 -155 377zM372 514q0 -90 62 -152t152 -62q89 0 151 62q63 63 63 152q0 88 -63 151q-62 62 -152 62q-88 0 -151 -62q-62 -62 -62 -151zM1157 642h319q-19 98 -154 98q-117 0 -165 -98z" />
<glyph unicode="&#x178;" horiz-adv-x="1217" d="M27 1495q0 37 50 37h237h2q55 0 76 -53l206 -516l208 514q21 53 76 53h2h233q50 0 50 -37q0 -11 -7 -28l-396 -912v-486q2 -67 -63 -67h-4h-196h-4q-65 0 -63 67v486l-400 914q-7 17 -7 28zM239 1768q0 66 45 111q44 45 111 45q65 0 109 -45q45 -45 45 -111 q0 -65 -44 -109q-44 -45 -111 -45t-111 45q-44 44 -44 109zM643 1767q0 67 45 112q43 44 110 44q65 0 109 -45q45 -45 45 -111q0 -64 -44 -108q-44 -45 -112 -45q-66 0 -109 44q-44 44 -44 109z" />
<glyph unicode="&#x2c6;" horiz-adv-x="815" d="M88 1398q0 25 35 39l216 83q36 14 56 14q22 0 59 -16l221 -92q35 -14 35 -42q0 -12 -13 -31l-91 -136q-21 -31 -44 -31q-13 0 -33 9l-134 59l-130 -50q-19 -7 -31 -7q-25 0 -46 32l-88 136q-12 18 -12 33z" />
<glyph unicode="&#x2dc;" horiz-adv-x="909" d="M96 1176v213q0 68 52 93q80 38 155 38q48 0 144 -27q73 -21 103 -21q68 0 187 67q16 9 25 9q31 0 31 -38v-154q1 -52 -35 -78l-8 -6q-96 -70 -172 -70q-49 0 -151 29q-83 23 -118 23q-103 0 -181 -92q-6 -8 -15 -8q-17 0 -17 22z" />
<glyph unicode="&#x2000;" horiz-adv-x="990" />
<glyph unicode="&#x2001;" horiz-adv-x="1980" />
<glyph unicode="&#x2002;" horiz-adv-x="990" />
<glyph unicode="&#x2003;" horiz-adv-x="1980" />
<glyph unicode="&#x2004;" horiz-adv-x="660" />
<glyph unicode="&#x2005;" horiz-adv-x="495" />
<glyph unicode="&#x2006;" horiz-adv-x="330" />
<glyph unicode="&#x2007;" horiz-adv-x="330" />
<glyph unicode="&#x2008;" horiz-adv-x="247" />
<glyph unicode="&#x2009;" horiz-adv-x="396" />
<glyph unicode="&#x200a;" horiz-adv-x="110" />
<glyph unicode="&#x2010;" horiz-adv-x="879" d="M100 516v136q-2 67 63 67h4h532h4q65 0 63 -67v-136q2 -67 -63 -67h-4h-532h-4q-65 0 -63 67z" />
<glyph unicode="&#x2011;" horiz-adv-x="879" d="M100 516v136q-2 67 63 67h4h532h4q65 0 63 -67v-136q2 -67 -63 -67h-4h-532h-4q-65 0 -63 67z" />
<glyph unicode="&#x2012;" horiz-adv-x="879" d="M100 516v136q-2 67 63 67h4h532h4q65 0 63 -67v-136q2 -67 -63 -67h-4h-532h-4q-65 0 -63 67z" />
<glyph unicode="&#x2013;" horiz-adv-x="1257" d="M104 516v136q-2 67 63 67h4h892h4q65 0 63 -67v-136q2 -67 -63 -67h-4h-892h-4q-65 0 -63 67z" />
<glyph unicode="&#x2014;" horiz-adv-x="1618" d="M110 516v136q-2 67 63 67h4h1234h4q65 0 63 -67v-136q2 -67 -63 -67h-4h-1234h-4q-65 0 -63 67z" />
<glyph unicode="&#x2018;" horiz-adv-x="461" d="M66 1471q0 42 55 42h149h4q59 0 64 -62l27 -284q1 -9 1 -16q0 -42 -52 -48l-90 -10q-8 -1 -16 -1q-37 0 -50 46l-88 308q-4 15 -4 25z" />
<glyph unicode="&#x2019;" horiz-adv-x="461" d="M62 1152q0 8 1 15l27 284q5 62 64 62h4h149q55 0 55 -42q0 -9 -4 -25l-88 -308q-13 -46 -50 -46q-8 0 -17 1l-89 10q-52 6 -52 49z" />
<glyph unicode="&#x201a;" horiz-adv-x="461" d="M62 -85q0 8 1 15l27 284q5 62 66 62h2h149q55 0 55 -42q0 -10 -4 -25l-88 -309q-13 -45 -50 -45q-9 0 -17 1l-89 10q-52 6 -52 49z" />
<glyph unicode="&#x201c;" horiz-adv-x="791" d="M70 1471q0 42 55 42h149h4q59 0 64 -62l27 -284q1 -9 1 -16q0 -42 -52 -48l-90 -10q-8 -1 -16 -1q-37 0 -50 46l-88 308q-4 15 -4 25zM377 1471q0 42 55 42h147h4q59 0 64 -62l27 -284q1 -6 1 -13q0 -45 -52 -51l-87 -10q-10 -1 -18 -1q-36 0 -49 46l-88 308q-4 16 -4 25 z" />
<glyph unicode="&#x201d;" horiz-adv-x="791" d="M66 1153q0 7 1 14l27 284q5 62 64 62h4h149q55 0 55 -42q0 -9 -5 -25l-89 -309q-13 -45 -49 -45q-8 0 -17 1l-88 10q-52 6 -52 50zM373 1151q0 7 1 16l27 284q5 62 65 62h4h146q55 0 55 -42q0 -10 -4 -25l-88 -308q-13 -46 -49 -46q-8 0 -17 1l-87 10q-53 6 -53 48z" />
<glyph unicode="&#x201e;" horiz-adv-x="791" d="M66 -84q0 7 1 14l27 284q5 62 66 62h2h149q55 0 55 -42q0 -9 -5 -25l-89 -309q-13 -45 -49 -45q-9 0 -17 1l-88 10q-52 6 -52 50zM373 -86q0 7 1 16l27 284q5 62 67 62h2h146q55 0 55 -42q0 -11 -4 -25l-88 -308q-13 -46 -49 -46q-9 0 -17 1l-87 10q-53 6 -53 48z" />
<glyph unicode="&#x2022;" horiz-adv-x="717" d="M92 610q0 105 76 182q75 76 184 76q104 0 180 -76t76 -182t-76 -182t-182 -76t-182 76t-76 182z" />
<glyph unicode="&#x202f;" horiz-adv-x="396" />
<glyph unicode="&#x2039;" horiz-adv-x="655" d="M84 555q0 19 19 48l221 345q21 33 49 33q17 0 40 -19l111 -91q29 -24 29 -51q0 -16 -16 -40l-150 -225q77 -120 104 -155q66 -91 66 -114q0 -29 -32 -52l-118 -86q-24 -17 -40 -17q-29 0 -51 35l-214 341q-18 29 -18 48z" />
<glyph unicode="&#x203a;" horiz-adv-x="655" d="M86 286q0 16 17 40l155 229l-150 225q-16 24 -16 40q0 27 29 51l108 91q22 19 40 19q28 0 49 -33l223 -345q18 -28 18 -49q0 -19 -18 -47l-212 -341q-22 -35 -51 -35q-16 0 -40 17l-119 86q-33 24 -33 52z" />
<glyph unicode="&#x205f;" horiz-adv-x="495" />
<glyph unicode="&#x20ac;" horiz-adv-x="1233" d="M70 517v130q-2 66 65 67l44 2v63h-42h-4q-65 0 -63 67v132q-2 67 65 67l46 2q29 194 141 317q148 164 371 164q190 0 345 -118q48 -36 48 -70q0 -25 -27 -49l-150 -137q-26 -23 -47 -23q-20 0 -48 24q-55 46 -115 46q-152 0 -189 -146l-2 -8h294h4q65 0 63 -67v-134 q2 -67 -63 -67h-4h-298v-61h300h4q65 0 63 -67v-140q2 -67 -63 -67h-4h-289q27 -83 109 -118q31 -13 75 -13q58 0 110 42q32 25 52 25q22 0 47 -24l148 -140q26 -25 26 -49q0 -35 -55 -74q-153 -109 -328 -109q-59 0 -123 16q-160 41 -258 153l-14 17q-101 120 -123 280h-44 h-4q-65 0 -63 67z" />
<glyph unicode="&#x25fc;" horiz-adv-x="1025" d="M0 0v1025h1025v-1025h-1025z" />
</font>
</defs>
</svg>
